<mxfile host="app.diagrams.net" modified="2023-08-26T12:57:38.926Z" agent="Mozilla/5.0 (Windows NT 10.0; Win64; x64) AppleWebKit/537.36 (KHTML, like Gecko) Chrome/116.0.0.0 Safari/537.36" etag="MHpfBr98dZx1CcByHuFe" version="21.6.8" type="device">
  <diagram name="PÃ¡gina-1" id="DVfVXV5uTXbaLjRKKghg">
    <mxGraphModel dx="1176" dy="507" grid="1" gridSize="10" guides="1" tooltips="1" connect="1" arrows="1" fold="1" page="1" pageScale="1" pageWidth="827" pageHeight="1169" math="0" shadow="0">
      <root>
        <mxCell id="0" />
        <mxCell id="1" parent="0" />
        <mxCell id="bf3HpVVtW3jvYF63dSP6-1" value="" style="shape=table;startSize=0;container=1;collapsible=0;childLayout=tableLayout;fontSize=16;points=[[0,0,0,0,0],[0,0.25,0,0,0],[0,0.5,0,0,0],[0,0.75,0,0,0],[0,1,0,0,0],[0.25,0,0,0,0],[0.25,1,0,0,0],[0.5,0,0,0,0],[0.5,1,0,0,0],[0.75,0,0,0,0],[0.75,1,0,0,0],[1,0,0,0,0],[1,0.25,0,0,0],[1,0.5,0,0,0],[1,0.75,0,0,0],[1,1,0,0,0]];" vertex="1" parent="1">
          <mxGeometry x="320" y="200" width="100" height="80" as="geometry" />
        </mxCell>
        <mxCell id="bf3HpVVtW3jvYF63dSP6-2" value="" style="shape=tableRow;horizontal=0;startSize=0;swimlaneHead=0;swimlaneBody=0;strokeColor=inherit;top=0;left=0;bottom=0;right=0;collapsible=0;dropTarget=0;fillColor=none;points=[[0,0.5],[1,0.5]];portConstraint=eastwest;fontSize=16;" vertex="1" parent="bf3HpVVtW3jvYF63dSP6-1">
          <mxGeometry width="100" height="22" as="geometry" />
        </mxCell>
        <mxCell id="bf3HpVVtW3jvYF63dSP6-27" style="shape=partialRectangle;html=1;whiteSpace=wrap;connectable=0;strokeColor=inherit;overflow=hidden;fillColor=none;top=0;left=0;bottom=0;right=0;pointerEvents=1;fontSize=16;" vertex="1" parent="bf3HpVVtW3jvYF63dSP6-2">
          <mxGeometry width="25" height="22" as="geometry">
            <mxRectangle width="25" height="22" as="alternateBounds" />
          </mxGeometry>
        </mxCell>
        <mxCell id="bf3HpVVtW3jvYF63dSP6-3" value="" style="shape=partialRectangle;html=1;whiteSpace=wrap;connectable=0;strokeColor=inherit;overflow=hidden;fillColor=none;top=0;left=0;bottom=0;right=0;pointerEvents=1;fontSize=16;" vertex="1" parent="bf3HpVVtW3jvYF63dSP6-2">
          <mxGeometry x="25" width="25" height="22" as="geometry">
            <mxRectangle width="25" height="22" as="alternateBounds" />
          </mxGeometry>
        </mxCell>
        <mxCell id="bf3HpVVtW3jvYF63dSP6-4" value="" style="shape=partialRectangle;html=1;whiteSpace=wrap;connectable=0;strokeColor=inherit;overflow=hidden;fillColor=none;top=0;left=0;bottom=0;right=0;pointerEvents=1;fontSize=16;" vertex="1" parent="bf3HpVVtW3jvYF63dSP6-2">
          <mxGeometry x="50" width="25" height="22" as="geometry">
            <mxRectangle width="25" height="22" as="alternateBounds" />
          </mxGeometry>
        </mxCell>
        <mxCell id="bf3HpVVtW3jvYF63dSP6-5" value="" style="shape=partialRectangle;html=1;whiteSpace=wrap;connectable=0;strokeColor=inherit;overflow=hidden;fillColor=none;top=0;left=0;bottom=0;right=0;pointerEvents=1;fontSize=16;" vertex="1" parent="bf3HpVVtW3jvYF63dSP6-2">
          <mxGeometry x="75" width="25" height="22" as="geometry">
            <mxRectangle width="25" height="22" as="alternateBounds" />
          </mxGeometry>
        </mxCell>
        <mxCell id="bf3HpVVtW3jvYF63dSP6-6" value="" style="shape=tableRow;horizontal=0;startSize=0;swimlaneHead=0;swimlaneBody=0;strokeColor=inherit;top=0;left=0;bottom=0;right=0;collapsible=0;dropTarget=0;fillColor=none;points=[[0,0.5],[1,0.5]];portConstraint=eastwest;fontSize=16;" vertex="1" parent="bf3HpVVtW3jvYF63dSP6-1">
          <mxGeometry y="22" width="100" height="21" as="geometry" />
        </mxCell>
        <mxCell id="bf3HpVVtW3jvYF63dSP6-28" style="shape=partialRectangle;html=1;whiteSpace=wrap;connectable=0;strokeColor=inherit;overflow=hidden;fillColor=none;top=0;left=0;bottom=0;right=0;pointerEvents=1;fontSize=16;" vertex="1" parent="bf3HpVVtW3jvYF63dSP6-6">
          <mxGeometry width="25" height="21" as="geometry">
            <mxRectangle width="25" height="21" as="alternateBounds" />
          </mxGeometry>
        </mxCell>
        <mxCell id="bf3HpVVtW3jvYF63dSP6-7" value="" style="shape=partialRectangle;html=1;whiteSpace=wrap;connectable=0;strokeColor=inherit;overflow=hidden;fillColor=none;top=0;left=0;bottom=0;right=0;pointerEvents=1;fontSize=16;" vertex="1" parent="bf3HpVVtW3jvYF63dSP6-6">
          <mxGeometry x="25" width="25" height="21" as="geometry">
            <mxRectangle width="25" height="21" as="alternateBounds" />
          </mxGeometry>
        </mxCell>
        <mxCell id="bf3HpVVtW3jvYF63dSP6-8" value="" style="shape=partialRectangle;html=1;whiteSpace=wrap;connectable=0;strokeColor=inherit;overflow=hidden;fillColor=none;top=0;left=0;bottom=0;right=0;pointerEvents=1;fontSize=16;" vertex="1" parent="bf3HpVVtW3jvYF63dSP6-6">
          <mxGeometry x="50" width="25" height="21" as="geometry">
            <mxRectangle width="25" height="21" as="alternateBounds" />
          </mxGeometry>
        </mxCell>
        <mxCell id="bf3HpVVtW3jvYF63dSP6-9" value="" style="shape=partialRectangle;html=1;whiteSpace=wrap;connectable=0;strokeColor=inherit;overflow=hidden;fillColor=none;top=0;left=0;bottom=0;right=0;pointerEvents=1;fontSize=16;" vertex="1" parent="bf3HpVVtW3jvYF63dSP6-6">
          <mxGeometry x="75" width="25" height="21" as="geometry">
            <mxRectangle width="25" height="21" as="alternateBounds" />
          </mxGeometry>
        </mxCell>
        <mxCell id="bf3HpVVtW3jvYF63dSP6-10" value="" style="shape=tableRow;horizontal=0;startSize=0;swimlaneHead=0;swimlaneBody=0;strokeColor=inherit;top=0;left=0;bottom=0;right=0;collapsible=0;dropTarget=0;fillColor=none;points=[[0,0.5],[1,0.5]];portConstraint=eastwest;fontSize=16;" vertex="1" parent="bf3HpVVtW3jvYF63dSP6-1">
          <mxGeometry y="43" width="100" height="21" as="geometry" />
        </mxCell>
        <mxCell id="bf3HpVVtW3jvYF63dSP6-29" style="shape=partialRectangle;html=1;whiteSpace=wrap;connectable=0;strokeColor=inherit;overflow=hidden;fillColor=none;top=0;left=0;bottom=0;right=0;pointerEvents=1;fontSize=16;" vertex="1" parent="bf3HpVVtW3jvYF63dSP6-10">
          <mxGeometry width="25" height="21" as="geometry">
            <mxRectangle width="25" height="21" as="alternateBounds" />
          </mxGeometry>
        </mxCell>
        <mxCell id="bf3HpVVtW3jvYF63dSP6-11" value="" style="shape=partialRectangle;html=1;whiteSpace=wrap;connectable=0;strokeColor=inherit;overflow=hidden;fillColor=none;top=0;left=0;bottom=0;right=0;pointerEvents=1;fontSize=16;" vertex="1" parent="bf3HpVVtW3jvYF63dSP6-10">
          <mxGeometry x="25" width="25" height="21" as="geometry">
            <mxRectangle width="25" height="21" as="alternateBounds" />
          </mxGeometry>
        </mxCell>
        <mxCell id="bf3HpVVtW3jvYF63dSP6-12" value="" style="shape=partialRectangle;html=1;whiteSpace=wrap;connectable=0;strokeColor=inherit;overflow=hidden;fillColor=none;top=0;left=0;bottom=0;right=0;pointerEvents=1;fontSize=16;" vertex="1" parent="bf3HpVVtW3jvYF63dSP6-10">
          <mxGeometry x="50" width="25" height="21" as="geometry">
            <mxRectangle width="25" height="21" as="alternateBounds" />
          </mxGeometry>
        </mxCell>
        <mxCell id="bf3HpVVtW3jvYF63dSP6-13" value="" style="shape=partialRectangle;html=1;whiteSpace=wrap;connectable=0;strokeColor=inherit;overflow=hidden;fillColor=none;top=0;left=0;bottom=0;right=0;pointerEvents=1;fontSize=16;" vertex="1" parent="bf3HpVVtW3jvYF63dSP6-10">
          <mxGeometry x="75" width="25" height="21" as="geometry">
            <mxRectangle width="25" height="21" as="alternateBounds" />
          </mxGeometry>
        </mxCell>
        <mxCell id="bf3HpVVtW3jvYF63dSP6-30" style="shape=tableRow;horizontal=0;startSize=0;swimlaneHead=0;swimlaneBody=0;strokeColor=inherit;top=0;left=0;bottom=0;right=0;collapsible=0;dropTarget=0;fillColor=none;points=[[0,0.5],[1,0.5]];portConstraint=eastwest;fontSize=16;" vertex="1" parent="bf3HpVVtW3jvYF63dSP6-1">
          <mxGeometry y="64" width="100" height="16" as="geometry" />
        </mxCell>
        <mxCell id="bf3HpVVtW3jvYF63dSP6-31" style="shape=partialRectangle;html=1;whiteSpace=wrap;connectable=0;strokeColor=inherit;overflow=hidden;fillColor=none;top=0;left=0;bottom=0;right=0;pointerEvents=1;fontSize=16;" vertex="1" parent="bf3HpVVtW3jvYF63dSP6-30">
          <mxGeometry width="25" height="16" as="geometry">
            <mxRectangle width="25" height="16" as="alternateBounds" />
          </mxGeometry>
        </mxCell>
        <mxCell id="bf3HpVVtW3jvYF63dSP6-32" style="shape=partialRectangle;html=1;whiteSpace=wrap;connectable=0;strokeColor=inherit;overflow=hidden;fillColor=none;top=0;left=0;bottom=0;right=0;pointerEvents=1;fontSize=16;" vertex="1" parent="bf3HpVVtW3jvYF63dSP6-30">
          <mxGeometry x="25" width="25" height="16" as="geometry">
            <mxRectangle width="25" height="16" as="alternateBounds" />
          </mxGeometry>
        </mxCell>
        <mxCell id="bf3HpVVtW3jvYF63dSP6-33" style="shape=partialRectangle;html=1;whiteSpace=wrap;connectable=0;strokeColor=inherit;overflow=hidden;fillColor=none;top=0;left=0;bottom=0;right=0;pointerEvents=1;fontSize=16;" vertex="1" parent="bf3HpVVtW3jvYF63dSP6-30">
          <mxGeometry x="50" width="25" height="16" as="geometry">
            <mxRectangle width="25" height="16" as="alternateBounds" />
          </mxGeometry>
        </mxCell>
        <mxCell id="bf3HpVVtW3jvYF63dSP6-34" style="shape=partialRectangle;html=1;whiteSpace=wrap;connectable=0;strokeColor=inherit;overflow=hidden;fillColor=none;top=0;left=0;bottom=0;right=0;pointerEvents=1;fontSize=16;" vertex="1" parent="bf3HpVVtW3jvYF63dSP6-30">
          <mxGeometry x="75" width="25" height="16" as="geometry">
            <mxRectangle width="25" height="16" as="alternateBounds" />
          </mxGeometry>
        </mxCell>
        <mxCell id="bf3HpVVtW3jvYF63dSP6-56" value="" style="shape=table;startSize=0;container=1;collapsible=0;childLayout=tableLayout;fontSize=16;points=[[0,0,0,0,0],[0,0.25,0,0,0],[0,0.5,0,0,0],[0,0.75,0,0,0],[0,1,0,0,0],[0.25,0,0,0,0],[0.25,1,0,0,0],[0.5,0,0,0,0],[0.5,1,0,0,0],[0.75,0,0,0,0],[0.75,1,0,0,0],[1,0,0,0,0],[1,0.25,0,0,0],[1,0.5,0,0,0],[1,0.75,0,0,0],[1,1,0,0,0]];" vertex="1" parent="1">
          <mxGeometry x="150" y="350" width="100" height="80" as="geometry" />
        </mxCell>
        <mxCell id="bf3HpVVtW3jvYF63dSP6-57" value="" style="shape=tableRow;horizontal=0;startSize=0;swimlaneHead=0;swimlaneBody=0;strokeColor=inherit;top=0;left=0;bottom=0;right=0;collapsible=0;dropTarget=0;fillColor=none;points=[[0,0.5],[1,0.5]];portConstraint=eastwest;fontSize=16;" vertex="1" parent="bf3HpVVtW3jvYF63dSP6-56">
          <mxGeometry width="100" height="22" as="geometry" />
        </mxCell>
        <mxCell id="bf3HpVVtW3jvYF63dSP6-58" value="1" style="shape=partialRectangle;html=1;whiteSpace=wrap;connectable=0;strokeColor=inherit;overflow=hidden;fillColor=none;top=0;left=0;bottom=0;right=0;pointerEvents=1;fontSize=16;" vertex="1" parent="bf3HpVVtW3jvYF63dSP6-57">
          <mxGeometry width="25" height="22" as="geometry">
            <mxRectangle width="25" height="22" as="alternateBounds" />
          </mxGeometry>
        </mxCell>
        <mxCell id="bf3HpVVtW3jvYF63dSP6-59" value="" style="shape=partialRectangle;html=1;whiteSpace=wrap;connectable=0;strokeColor=inherit;overflow=hidden;fillColor=none;top=0;left=0;bottom=0;right=0;pointerEvents=1;fontSize=16;" vertex="1" parent="bf3HpVVtW3jvYF63dSP6-57">
          <mxGeometry x="25" width="25" height="22" as="geometry">
            <mxRectangle width="25" height="22" as="alternateBounds" />
          </mxGeometry>
        </mxCell>
        <mxCell id="bf3HpVVtW3jvYF63dSP6-60" value="" style="shape=partialRectangle;html=1;whiteSpace=wrap;connectable=0;strokeColor=inherit;overflow=hidden;fillColor=none;top=0;left=0;bottom=0;right=0;pointerEvents=1;fontSize=16;" vertex="1" parent="bf3HpVVtW3jvYF63dSP6-57">
          <mxGeometry x="50" width="25" height="22" as="geometry">
            <mxRectangle width="25" height="22" as="alternateBounds" />
          </mxGeometry>
        </mxCell>
        <mxCell id="bf3HpVVtW3jvYF63dSP6-61" value="" style="shape=partialRectangle;html=1;whiteSpace=wrap;connectable=0;strokeColor=inherit;overflow=hidden;fillColor=none;top=0;left=0;bottom=0;right=0;pointerEvents=1;fontSize=16;" vertex="1" parent="bf3HpVVtW3jvYF63dSP6-57">
          <mxGeometry x="75" width="25" height="22" as="geometry">
            <mxRectangle width="25" height="22" as="alternateBounds" />
          </mxGeometry>
        </mxCell>
        <mxCell id="bf3HpVVtW3jvYF63dSP6-62" value="" style="shape=tableRow;horizontal=0;startSize=0;swimlaneHead=0;swimlaneBody=0;strokeColor=inherit;top=0;left=0;bottom=0;right=0;collapsible=0;dropTarget=0;fillColor=none;points=[[0,0.5],[1,0.5]];portConstraint=eastwest;fontSize=16;" vertex="1" parent="bf3HpVVtW3jvYF63dSP6-56">
          <mxGeometry y="22" width="100" height="21" as="geometry" />
        </mxCell>
        <mxCell id="bf3HpVVtW3jvYF63dSP6-63" style="shape=partialRectangle;html=1;whiteSpace=wrap;connectable=0;strokeColor=inherit;overflow=hidden;fillColor=none;top=0;left=0;bottom=0;right=0;pointerEvents=1;fontSize=16;" vertex="1" parent="bf3HpVVtW3jvYF63dSP6-62">
          <mxGeometry width="25" height="21" as="geometry">
            <mxRectangle width="25" height="21" as="alternateBounds" />
          </mxGeometry>
        </mxCell>
        <mxCell id="bf3HpVVtW3jvYF63dSP6-64" value="" style="shape=partialRectangle;html=1;whiteSpace=wrap;connectable=0;strokeColor=inherit;overflow=hidden;fillColor=none;top=0;left=0;bottom=0;right=0;pointerEvents=1;fontSize=16;" vertex="1" parent="bf3HpVVtW3jvYF63dSP6-62">
          <mxGeometry x="25" width="25" height="21" as="geometry">
            <mxRectangle width="25" height="21" as="alternateBounds" />
          </mxGeometry>
        </mxCell>
        <mxCell id="bf3HpVVtW3jvYF63dSP6-65" value="" style="shape=partialRectangle;html=1;whiteSpace=wrap;connectable=0;strokeColor=inherit;overflow=hidden;fillColor=none;top=0;left=0;bottom=0;right=0;pointerEvents=1;fontSize=16;" vertex="1" parent="bf3HpVVtW3jvYF63dSP6-62">
          <mxGeometry x="50" width="25" height="21" as="geometry">
            <mxRectangle width="25" height="21" as="alternateBounds" />
          </mxGeometry>
        </mxCell>
        <mxCell id="bf3HpVVtW3jvYF63dSP6-66" value="" style="shape=partialRectangle;html=1;whiteSpace=wrap;connectable=0;strokeColor=inherit;overflow=hidden;fillColor=none;top=0;left=0;bottom=0;right=0;pointerEvents=1;fontSize=16;" vertex="1" parent="bf3HpVVtW3jvYF63dSP6-62">
          <mxGeometry x="75" width="25" height="21" as="geometry">
            <mxRectangle width="25" height="21" as="alternateBounds" />
          </mxGeometry>
        </mxCell>
        <mxCell id="bf3HpVVtW3jvYF63dSP6-67" value="" style="shape=tableRow;horizontal=0;startSize=0;swimlaneHead=0;swimlaneBody=0;strokeColor=inherit;top=0;left=0;bottom=0;right=0;collapsible=0;dropTarget=0;fillColor=none;points=[[0,0.5],[1,0.5]];portConstraint=eastwest;fontSize=16;" vertex="1" parent="bf3HpVVtW3jvYF63dSP6-56">
          <mxGeometry y="43" width="100" height="21" as="geometry" />
        </mxCell>
        <mxCell id="bf3HpVVtW3jvYF63dSP6-68" style="shape=partialRectangle;html=1;whiteSpace=wrap;connectable=0;strokeColor=inherit;overflow=hidden;fillColor=none;top=0;left=0;bottom=0;right=0;pointerEvents=1;fontSize=16;" vertex="1" parent="bf3HpVVtW3jvYF63dSP6-67">
          <mxGeometry width="25" height="21" as="geometry">
            <mxRectangle width="25" height="21" as="alternateBounds" />
          </mxGeometry>
        </mxCell>
        <mxCell id="bf3HpVVtW3jvYF63dSP6-69" value="" style="shape=partialRectangle;html=1;whiteSpace=wrap;connectable=0;strokeColor=inherit;overflow=hidden;fillColor=none;top=0;left=0;bottom=0;right=0;pointerEvents=1;fontSize=16;" vertex="1" parent="bf3HpVVtW3jvYF63dSP6-67">
          <mxGeometry x="25" width="25" height="21" as="geometry">
            <mxRectangle width="25" height="21" as="alternateBounds" />
          </mxGeometry>
        </mxCell>
        <mxCell id="bf3HpVVtW3jvYF63dSP6-70" value="" style="shape=partialRectangle;html=1;whiteSpace=wrap;connectable=0;strokeColor=inherit;overflow=hidden;fillColor=none;top=0;left=0;bottom=0;right=0;pointerEvents=1;fontSize=16;" vertex="1" parent="bf3HpVVtW3jvYF63dSP6-67">
          <mxGeometry x="50" width="25" height="21" as="geometry">
            <mxRectangle width="25" height="21" as="alternateBounds" />
          </mxGeometry>
        </mxCell>
        <mxCell id="bf3HpVVtW3jvYF63dSP6-71" value="" style="shape=partialRectangle;html=1;whiteSpace=wrap;connectable=0;strokeColor=inherit;overflow=hidden;fillColor=none;top=0;left=0;bottom=0;right=0;pointerEvents=1;fontSize=16;" vertex="1" parent="bf3HpVVtW3jvYF63dSP6-67">
          <mxGeometry x="75" width="25" height="21" as="geometry">
            <mxRectangle width="25" height="21" as="alternateBounds" />
          </mxGeometry>
        </mxCell>
        <mxCell id="bf3HpVVtW3jvYF63dSP6-72" style="shape=tableRow;horizontal=0;startSize=0;swimlaneHead=0;swimlaneBody=0;strokeColor=inherit;top=0;left=0;bottom=0;right=0;collapsible=0;dropTarget=0;fillColor=none;points=[[0,0.5],[1,0.5]];portConstraint=eastwest;fontSize=16;" vertex="1" parent="bf3HpVVtW3jvYF63dSP6-56">
          <mxGeometry y="64" width="100" height="16" as="geometry" />
        </mxCell>
        <mxCell id="bf3HpVVtW3jvYF63dSP6-73" style="shape=partialRectangle;html=1;whiteSpace=wrap;connectable=0;strokeColor=inherit;overflow=hidden;fillColor=none;top=0;left=0;bottom=0;right=0;pointerEvents=1;fontSize=16;" vertex="1" parent="bf3HpVVtW3jvYF63dSP6-72">
          <mxGeometry width="25" height="16" as="geometry">
            <mxRectangle width="25" height="16" as="alternateBounds" />
          </mxGeometry>
        </mxCell>
        <mxCell id="bf3HpVVtW3jvYF63dSP6-74" style="shape=partialRectangle;html=1;whiteSpace=wrap;connectable=0;strokeColor=inherit;overflow=hidden;fillColor=none;top=0;left=0;bottom=0;right=0;pointerEvents=1;fontSize=16;" vertex="1" parent="bf3HpVVtW3jvYF63dSP6-72">
          <mxGeometry x="25" width="25" height="16" as="geometry">
            <mxRectangle width="25" height="16" as="alternateBounds" />
          </mxGeometry>
        </mxCell>
        <mxCell id="bf3HpVVtW3jvYF63dSP6-75" style="shape=partialRectangle;html=1;whiteSpace=wrap;connectable=0;strokeColor=inherit;overflow=hidden;fillColor=none;top=0;left=0;bottom=0;right=0;pointerEvents=1;fontSize=16;" vertex="1" parent="bf3HpVVtW3jvYF63dSP6-72">
          <mxGeometry x="50" width="25" height="16" as="geometry">
            <mxRectangle width="25" height="16" as="alternateBounds" />
          </mxGeometry>
        </mxCell>
        <mxCell id="bf3HpVVtW3jvYF63dSP6-76" style="shape=partialRectangle;html=1;whiteSpace=wrap;connectable=0;strokeColor=inherit;overflow=hidden;fillColor=none;top=0;left=0;bottom=0;right=0;pointerEvents=1;fontSize=16;" vertex="1" parent="bf3HpVVtW3jvYF63dSP6-72">
          <mxGeometry x="75" width="25" height="16" as="geometry">
            <mxRectangle width="25" height="16" as="alternateBounds" />
          </mxGeometry>
        </mxCell>
        <mxCell id="bf3HpVVtW3jvYF63dSP6-77" value="Paso1" style="text;html=1;align=center;verticalAlign=middle;resizable=0;points=[];autosize=1;strokeColor=none;fillColor=none;" vertex="1" parent="1">
          <mxGeometry x="70" y="310" width="60" height="30" as="geometry" />
        </mxCell>
        <mxCell id="bf3HpVVtW3jvYF63dSP6-78" value="" style="shape=table;startSize=0;container=1;collapsible=0;childLayout=tableLayout;fontSize=16;points=[[0,0,0,0,0],[0,0.25,0,0,0],[0,0.5,0,0,0],[0,0.75,0,0,0],[0,1,0,0,0],[0.25,0,0,0,0],[0.25,1,0,0,0],[0.5,0,0,0,0],[0.5,1,0,0,0],[0.75,0,0,0,0],[0.75,1,0,0,0],[1,0,0,0,0],[1,0.25,0,0,0],[1,0.5,0,0,0],[1,0.75,0,0,0],[1,1,0,0,0]];" vertex="1" parent="1">
          <mxGeometry x="30" y="500" width="100" height="79" as="geometry" />
        </mxCell>
        <mxCell id="bf3HpVVtW3jvYF63dSP6-79" value="" style="shape=tableRow;horizontal=0;startSize=0;swimlaneHead=0;swimlaneBody=0;strokeColor=inherit;top=0;left=0;bottom=0;right=0;collapsible=0;dropTarget=0;fillColor=none;points=[[0,0.5],[1,0.5]];portConstraint=eastwest;fontSize=16;" vertex="1" parent="bf3HpVVtW3jvYF63dSP6-78">
          <mxGeometry width="100" height="22" as="geometry" />
        </mxCell>
        <mxCell id="bf3HpVVtW3jvYF63dSP6-80" value="1" style="shape=partialRectangle;html=1;whiteSpace=wrap;connectable=0;strokeColor=inherit;overflow=hidden;fillColor=none;top=0;left=0;bottom=0;right=0;pointerEvents=1;fontSize=16;" vertex="1" parent="bf3HpVVtW3jvYF63dSP6-79">
          <mxGeometry width="25" height="22" as="geometry">
            <mxRectangle width="25" height="22" as="alternateBounds" />
          </mxGeometry>
        </mxCell>
        <mxCell id="bf3HpVVtW3jvYF63dSP6-81" value="" style="shape=partialRectangle;html=1;whiteSpace=wrap;connectable=0;strokeColor=inherit;overflow=hidden;fillColor=none;top=0;left=0;bottom=0;right=0;pointerEvents=1;fontSize=16;" vertex="1" parent="bf3HpVVtW3jvYF63dSP6-79">
          <mxGeometry x="25" width="25" height="22" as="geometry">
            <mxRectangle width="25" height="22" as="alternateBounds" />
          </mxGeometry>
        </mxCell>
        <mxCell id="bf3HpVVtW3jvYF63dSP6-82" value="" style="shape=partialRectangle;html=1;whiteSpace=wrap;connectable=0;strokeColor=inherit;overflow=hidden;fillColor=none;top=0;left=0;bottom=0;right=0;pointerEvents=1;fontSize=16;" vertex="1" parent="bf3HpVVtW3jvYF63dSP6-79">
          <mxGeometry x="50" width="25" height="22" as="geometry">
            <mxRectangle width="25" height="22" as="alternateBounds" />
          </mxGeometry>
        </mxCell>
        <mxCell id="bf3HpVVtW3jvYF63dSP6-83" value="" style="shape=partialRectangle;html=1;whiteSpace=wrap;connectable=0;strokeColor=inherit;overflow=hidden;fillColor=none;top=0;left=0;bottom=0;right=0;pointerEvents=1;fontSize=16;" vertex="1" parent="bf3HpVVtW3jvYF63dSP6-79">
          <mxGeometry x="75" width="25" height="22" as="geometry">
            <mxRectangle width="25" height="22" as="alternateBounds" />
          </mxGeometry>
        </mxCell>
        <mxCell id="bf3HpVVtW3jvYF63dSP6-84" value="" style="shape=tableRow;horizontal=0;startSize=0;swimlaneHead=0;swimlaneBody=0;strokeColor=inherit;top=0;left=0;bottom=0;right=0;collapsible=0;dropTarget=0;fillColor=none;points=[[0,0.5],[1,0.5]];portConstraint=eastwest;fontSize=16;" vertex="1" parent="bf3HpVVtW3jvYF63dSP6-78">
          <mxGeometry y="22" width="100" height="21" as="geometry" />
        </mxCell>
        <mxCell id="bf3HpVVtW3jvYF63dSP6-85" style="shape=partialRectangle;html=1;whiteSpace=wrap;connectable=0;strokeColor=inherit;overflow=hidden;fillColor=none;top=0;left=0;bottom=0;right=0;pointerEvents=1;fontSize=16;" vertex="1" parent="bf3HpVVtW3jvYF63dSP6-84">
          <mxGeometry width="25" height="21" as="geometry">
            <mxRectangle width="25" height="21" as="alternateBounds" />
          </mxGeometry>
        </mxCell>
        <mxCell id="bf3HpVVtW3jvYF63dSP6-86" value="" style="shape=partialRectangle;html=1;whiteSpace=wrap;connectable=0;strokeColor=inherit;overflow=hidden;fillColor=none;top=0;left=0;bottom=0;right=0;pointerEvents=1;fontSize=16;" vertex="1" parent="bf3HpVVtW3jvYF63dSP6-84">
          <mxGeometry x="25" width="25" height="21" as="geometry">
            <mxRectangle width="25" height="21" as="alternateBounds" />
          </mxGeometry>
        </mxCell>
        <mxCell id="bf3HpVVtW3jvYF63dSP6-87" value="1" style="shape=partialRectangle;html=1;whiteSpace=wrap;connectable=0;strokeColor=inherit;overflow=hidden;fillColor=none;top=0;left=0;bottom=0;right=0;pointerEvents=1;fontSize=16;" vertex="1" parent="bf3HpVVtW3jvYF63dSP6-84">
          <mxGeometry x="50" width="25" height="21" as="geometry">
            <mxRectangle width="25" height="21" as="alternateBounds" />
          </mxGeometry>
        </mxCell>
        <mxCell id="bf3HpVVtW3jvYF63dSP6-88" value="" style="shape=partialRectangle;html=1;whiteSpace=wrap;connectable=0;strokeColor=inherit;overflow=hidden;fillColor=none;top=0;left=0;bottom=0;right=0;pointerEvents=1;fontSize=16;" vertex="1" parent="bf3HpVVtW3jvYF63dSP6-84">
          <mxGeometry x="75" width="25" height="21" as="geometry">
            <mxRectangle width="25" height="21" as="alternateBounds" />
          </mxGeometry>
        </mxCell>
        <mxCell id="bf3HpVVtW3jvYF63dSP6-89" value="" style="shape=tableRow;horizontal=0;startSize=0;swimlaneHead=0;swimlaneBody=0;strokeColor=inherit;top=0;left=0;bottom=0;right=0;collapsible=0;dropTarget=0;fillColor=none;points=[[0,0.5],[1,0.5]];portConstraint=eastwest;fontSize=16;" vertex="1" parent="bf3HpVVtW3jvYF63dSP6-78">
          <mxGeometry y="43" width="100" height="20" as="geometry" />
        </mxCell>
        <mxCell id="bf3HpVVtW3jvYF63dSP6-90" style="shape=partialRectangle;html=1;whiteSpace=wrap;connectable=0;strokeColor=inherit;overflow=hidden;fillColor=none;top=0;left=0;bottom=0;right=0;pointerEvents=1;fontSize=16;" vertex="1" parent="bf3HpVVtW3jvYF63dSP6-89">
          <mxGeometry width="25" height="20" as="geometry">
            <mxRectangle width="25" height="20" as="alternateBounds" />
          </mxGeometry>
        </mxCell>
        <mxCell id="bf3HpVVtW3jvYF63dSP6-91" value="" style="shape=partialRectangle;html=1;whiteSpace=wrap;connectable=0;strokeColor=inherit;overflow=hidden;fillColor=none;top=0;left=0;bottom=0;right=0;pointerEvents=1;fontSize=16;" vertex="1" parent="bf3HpVVtW3jvYF63dSP6-89">
          <mxGeometry x="25" width="25" height="20" as="geometry">
            <mxRectangle width="25" height="20" as="alternateBounds" />
          </mxGeometry>
        </mxCell>
        <mxCell id="bf3HpVVtW3jvYF63dSP6-92" value="" style="shape=partialRectangle;html=1;whiteSpace=wrap;connectable=0;strokeColor=inherit;overflow=hidden;fillColor=none;top=0;left=0;bottom=0;right=0;pointerEvents=1;fontSize=16;" vertex="1" parent="bf3HpVVtW3jvYF63dSP6-89">
          <mxGeometry x="50" width="25" height="20" as="geometry">
            <mxRectangle width="25" height="20" as="alternateBounds" />
          </mxGeometry>
        </mxCell>
        <mxCell id="bf3HpVVtW3jvYF63dSP6-93" value="" style="shape=partialRectangle;html=1;whiteSpace=wrap;connectable=0;strokeColor=inherit;overflow=hidden;fillColor=none;top=0;left=0;bottom=0;right=0;pointerEvents=1;fontSize=16;" vertex="1" parent="bf3HpVVtW3jvYF63dSP6-89">
          <mxGeometry x="75" width="25" height="20" as="geometry">
            <mxRectangle width="25" height="20" as="alternateBounds" />
          </mxGeometry>
        </mxCell>
        <mxCell id="bf3HpVVtW3jvYF63dSP6-94" style="shape=tableRow;horizontal=0;startSize=0;swimlaneHead=0;swimlaneBody=0;strokeColor=inherit;top=0;left=0;bottom=0;right=0;collapsible=0;dropTarget=0;fillColor=none;points=[[0,0.5],[1,0.5]];portConstraint=eastwest;fontSize=16;" vertex="1" parent="bf3HpVVtW3jvYF63dSP6-78">
          <mxGeometry y="63" width="100" height="16" as="geometry" />
        </mxCell>
        <mxCell id="bf3HpVVtW3jvYF63dSP6-95" style="shape=partialRectangle;html=1;whiteSpace=wrap;connectable=0;strokeColor=inherit;overflow=hidden;fillColor=none;top=0;left=0;bottom=0;right=0;pointerEvents=1;fontSize=16;" vertex="1" parent="bf3HpVVtW3jvYF63dSP6-94">
          <mxGeometry width="25" height="16" as="geometry">
            <mxRectangle width="25" height="16" as="alternateBounds" />
          </mxGeometry>
        </mxCell>
        <mxCell id="bf3HpVVtW3jvYF63dSP6-96" style="shape=partialRectangle;html=1;whiteSpace=wrap;connectable=0;strokeColor=inherit;overflow=hidden;fillColor=none;top=0;left=0;bottom=0;right=0;pointerEvents=1;fontSize=16;" vertex="1" parent="bf3HpVVtW3jvYF63dSP6-94">
          <mxGeometry x="25" width="25" height="16" as="geometry">
            <mxRectangle width="25" height="16" as="alternateBounds" />
          </mxGeometry>
        </mxCell>
        <mxCell id="bf3HpVVtW3jvYF63dSP6-97" style="shape=partialRectangle;html=1;whiteSpace=wrap;connectable=0;strokeColor=inherit;overflow=hidden;fillColor=none;top=0;left=0;bottom=0;right=0;pointerEvents=1;fontSize=16;" vertex="1" parent="bf3HpVVtW3jvYF63dSP6-94">
          <mxGeometry x="50" width="25" height="16" as="geometry">
            <mxRectangle width="25" height="16" as="alternateBounds" />
          </mxGeometry>
        </mxCell>
        <mxCell id="bf3HpVVtW3jvYF63dSP6-98" style="shape=partialRectangle;html=1;whiteSpace=wrap;connectable=0;strokeColor=inherit;overflow=hidden;fillColor=none;top=0;left=0;bottom=0;right=0;pointerEvents=1;fontSize=16;" vertex="1" parent="bf3HpVVtW3jvYF63dSP6-94">
          <mxGeometry x="75" width="25" height="16" as="geometry">
            <mxRectangle width="25" height="16" as="alternateBounds" />
          </mxGeometry>
        </mxCell>
        <mxCell id="bf3HpVVtW3jvYF63dSP6-99" value="Paso2" style="text;html=1;align=center;verticalAlign=middle;resizable=0;points=[];autosize=1;strokeColor=none;fillColor=none;" vertex="1" parent="1">
          <mxGeometry x="30" y="460" width="60" height="30" as="geometry" />
        </mxCell>
        <mxCell id="bf3HpVVtW3jvYF63dSP6-100" value="" style="shape=table;startSize=0;container=1;collapsible=0;childLayout=tableLayout;fontSize=16;points=[[0,0,0,0,0],[0,0.25,0,0,0],[0,0.5,0,0,0],[0,0.75,0,0,0],[0,1,0,0,0],[0.25,0,0,0,0],[0.25,1,0,0,0],[0.5,0,0,0,0],[0.5,1,0,0,0],[0.75,0,0,0,0],[0.75,1,0,0,0],[1,0,0,0,0],[1,0.25,0,0,0],[1,0.5,0,0,0],[1,0.75,0,0,0],[1,1,0,0,0]];" vertex="1" parent="1">
          <mxGeometry x="270" y="500" width="100" height="79" as="geometry" />
        </mxCell>
        <mxCell id="bf3HpVVtW3jvYF63dSP6-101" value="" style="shape=tableRow;horizontal=0;startSize=0;swimlaneHead=0;swimlaneBody=0;strokeColor=inherit;top=0;left=0;bottom=0;right=0;collapsible=0;dropTarget=0;fillColor=none;points=[[0,0.5],[1,0.5]];portConstraint=eastwest;fontSize=16;" vertex="1" parent="bf3HpVVtW3jvYF63dSP6-100">
          <mxGeometry width="100" height="22" as="geometry" />
        </mxCell>
        <mxCell id="bf3HpVVtW3jvYF63dSP6-102" value="1" style="shape=partialRectangle;html=1;whiteSpace=wrap;connectable=0;strokeColor=inherit;overflow=hidden;fillColor=none;top=0;left=0;bottom=0;right=0;pointerEvents=1;fontSize=16;" vertex="1" parent="bf3HpVVtW3jvYF63dSP6-101">
          <mxGeometry width="25" height="22" as="geometry">
            <mxRectangle width="25" height="22" as="alternateBounds" />
          </mxGeometry>
        </mxCell>
        <mxCell id="bf3HpVVtW3jvYF63dSP6-103" value="" style="shape=partialRectangle;html=1;whiteSpace=wrap;connectable=0;strokeColor=inherit;overflow=hidden;fillColor=none;top=0;left=0;bottom=0;right=0;pointerEvents=1;fontSize=16;" vertex="1" parent="bf3HpVVtW3jvYF63dSP6-101">
          <mxGeometry x="25" width="25" height="22" as="geometry">
            <mxRectangle width="25" height="22" as="alternateBounds" />
          </mxGeometry>
        </mxCell>
        <mxCell id="bf3HpVVtW3jvYF63dSP6-104" value="" style="shape=partialRectangle;html=1;whiteSpace=wrap;connectable=0;strokeColor=inherit;overflow=hidden;fillColor=none;top=0;left=0;bottom=0;right=0;pointerEvents=1;fontSize=16;" vertex="1" parent="bf3HpVVtW3jvYF63dSP6-101">
          <mxGeometry x="50" width="25" height="22" as="geometry">
            <mxRectangle width="25" height="22" as="alternateBounds" />
          </mxGeometry>
        </mxCell>
        <mxCell id="bf3HpVVtW3jvYF63dSP6-105" value="" style="shape=partialRectangle;html=1;whiteSpace=wrap;connectable=0;strokeColor=inherit;overflow=hidden;fillColor=none;top=0;left=0;bottom=0;right=0;pointerEvents=1;fontSize=16;" vertex="1" parent="bf3HpVVtW3jvYF63dSP6-101">
          <mxGeometry x="75" width="25" height="22" as="geometry">
            <mxRectangle width="25" height="22" as="alternateBounds" />
          </mxGeometry>
        </mxCell>
        <mxCell id="bf3HpVVtW3jvYF63dSP6-106" value="" style="shape=tableRow;horizontal=0;startSize=0;swimlaneHead=0;swimlaneBody=0;strokeColor=inherit;top=0;left=0;bottom=0;right=0;collapsible=0;dropTarget=0;fillColor=none;points=[[0,0.5],[1,0.5]];portConstraint=eastwest;fontSize=16;" vertex="1" parent="bf3HpVVtW3jvYF63dSP6-100">
          <mxGeometry y="22" width="100" height="21" as="geometry" />
        </mxCell>
        <mxCell id="bf3HpVVtW3jvYF63dSP6-107" style="shape=partialRectangle;html=1;whiteSpace=wrap;connectable=0;strokeColor=inherit;overflow=hidden;fillColor=none;top=0;left=0;bottom=0;right=0;pointerEvents=1;fontSize=16;" vertex="1" parent="bf3HpVVtW3jvYF63dSP6-106">
          <mxGeometry width="25" height="21" as="geometry">
            <mxRectangle width="25" height="21" as="alternateBounds" />
          </mxGeometry>
        </mxCell>
        <mxCell id="bf3HpVVtW3jvYF63dSP6-108" value="" style="shape=partialRectangle;html=1;whiteSpace=wrap;connectable=0;strokeColor=inherit;overflow=hidden;fillColor=none;top=0;left=0;bottom=0;right=0;pointerEvents=1;fontSize=16;" vertex="1" parent="bf3HpVVtW3jvYF63dSP6-106">
          <mxGeometry x="25" width="25" height="21" as="geometry">
            <mxRectangle width="25" height="21" as="alternateBounds" />
          </mxGeometry>
        </mxCell>
        <mxCell id="bf3HpVVtW3jvYF63dSP6-109" value="" style="shape=partialRectangle;html=1;whiteSpace=wrap;connectable=0;strokeColor=inherit;overflow=hidden;fillColor=none;top=0;left=0;bottom=0;right=0;pointerEvents=1;fontSize=16;" vertex="1" parent="bf3HpVVtW3jvYF63dSP6-106">
          <mxGeometry x="50" width="25" height="21" as="geometry">
            <mxRectangle width="25" height="21" as="alternateBounds" />
          </mxGeometry>
        </mxCell>
        <mxCell id="bf3HpVVtW3jvYF63dSP6-110" value="1" style="shape=partialRectangle;html=1;whiteSpace=wrap;connectable=0;strokeColor=inherit;overflow=hidden;fillColor=none;top=0;left=0;bottom=0;right=0;pointerEvents=1;fontSize=16;" vertex="1" parent="bf3HpVVtW3jvYF63dSP6-106">
          <mxGeometry x="75" width="25" height="21" as="geometry">
            <mxRectangle width="25" height="21" as="alternateBounds" />
          </mxGeometry>
        </mxCell>
        <mxCell id="bf3HpVVtW3jvYF63dSP6-111" value="" style="shape=tableRow;horizontal=0;startSize=0;swimlaneHead=0;swimlaneBody=0;strokeColor=inherit;top=0;left=0;bottom=0;right=0;collapsible=0;dropTarget=0;fillColor=none;points=[[0,0.5],[1,0.5]];portConstraint=eastwest;fontSize=16;" vertex="1" parent="bf3HpVVtW3jvYF63dSP6-100">
          <mxGeometry y="43" width="100" height="20" as="geometry" />
        </mxCell>
        <mxCell id="bf3HpVVtW3jvYF63dSP6-112" style="shape=partialRectangle;html=1;whiteSpace=wrap;connectable=0;strokeColor=inherit;overflow=hidden;fillColor=none;top=0;left=0;bottom=0;right=0;pointerEvents=1;fontSize=16;" vertex="1" parent="bf3HpVVtW3jvYF63dSP6-111">
          <mxGeometry width="25" height="20" as="geometry">
            <mxRectangle width="25" height="20" as="alternateBounds" />
          </mxGeometry>
        </mxCell>
        <mxCell id="bf3HpVVtW3jvYF63dSP6-113" value="" style="shape=partialRectangle;html=1;whiteSpace=wrap;connectable=0;strokeColor=inherit;overflow=hidden;fillColor=none;top=0;left=0;bottom=0;right=0;pointerEvents=1;fontSize=16;" vertex="1" parent="bf3HpVVtW3jvYF63dSP6-111">
          <mxGeometry x="25" width="25" height="20" as="geometry">
            <mxRectangle width="25" height="20" as="alternateBounds" />
          </mxGeometry>
        </mxCell>
        <mxCell id="bf3HpVVtW3jvYF63dSP6-114" value="" style="shape=partialRectangle;html=1;whiteSpace=wrap;connectable=0;strokeColor=inherit;overflow=hidden;fillColor=none;top=0;left=0;bottom=0;right=0;pointerEvents=1;fontSize=16;" vertex="1" parent="bf3HpVVtW3jvYF63dSP6-111">
          <mxGeometry x="50" width="25" height="20" as="geometry">
            <mxRectangle width="25" height="20" as="alternateBounds" />
          </mxGeometry>
        </mxCell>
        <mxCell id="bf3HpVVtW3jvYF63dSP6-115" value="" style="shape=partialRectangle;html=1;whiteSpace=wrap;connectable=0;strokeColor=inherit;overflow=hidden;fillColor=none;top=0;left=0;bottom=0;right=0;pointerEvents=1;fontSize=16;" vertex="1" parent="bf3HpVVtW3jvYF63dSP6-111">
          <mxGeometry x="75" width="25" height="20" as="geometry">
            <mxRectangle width="25" height="20" as="alternateBounds" />
          </mxGeometry>
        </mxCell>
        <mxCell id="bf3HpVVtW3jvYF63dSP6-116" style="shape=tableRow;horizontal=0;startSize=0;swimlaneHead=0;swimlaneBody=0;strokeColor=inherit;top=0;left=0;bottom=0;right=0;collapsible=0;dropTarget=0;fillColor=none;points=[[0,0.5],[1,0.5]];portConstraint=eastwest;fontSize=16;" vertex="1" parent="bf3HpVVtW3jvYF63dSP6-100">
          <mxGeometry y="63" width="100" height="16" as="geometry" />
        </mxCell>
        <mxCell id="bf3HpVVtW3jvYF63dSP6-117" style="shape=partialRectangle;html=1;whiteSpace=wrap;connectable=0;strokeColor=inherit;overflow=hidden;fillColor=none;top=0;left=0;bottom=0;right=0;pointerEvents=1;fontSize=16;" vertex="1" parent="bf3HpVVtW3jvYF63dSP6-116">
          <mxGeometry width="25" height="16" as="geometry">
            <mxRectangle width="25" height="16" as="alternateBounds" />
          </mxGeometry>
        </mxCell>
        <mxCell id="bf3HpVVtW3jvYF63dSP6-118" style="shape=partialRectangle;html=1;whiteSpace=wrap;connectable=0;strokeColor=inherit;overflow=hidden;fillColor=none;top=0;left=0;bottom=0;right=0;pointerEvents=1;fontSize=16;" vertex="1" parent="bf3HpVVtW3jvYF63dSP6-116">
          <mxGeometry x="25" width="25" height="16" as="geometry">
            <mxRectangle width="25" height="16" as="alternateBounds" />
          </mxGeometry>
        </mxCell>
        <mxCell id="bf3HpVVtW3jvYF63dSP6-119" style="shape=partialRectangle;html=1;whiteSpace=wrap;connectable=0;strokeColor=inherit;overflow=hidden;fillColor=none;top=0;left=0;bottom=0;right=0;pointerEvents=1;fontSize=16;" vertex="1" parent="bf3HpVVtW3jvYF63dSP6-116">
          <mxGeometry x="50" width="25" height="16" as="geometry">
            <mxRectangle width="25" height="16" as="alternateBounds" />
          </mxGeometry>
        </mxCell>
        <mxCell id="bf3HpVVtW3jvYF63dSP6-120" style="shape=partialRectangle;html=1;whiteSpace=wrap;connectable=0;strokeColor=inherit;overflow=hidden;fillColor=none;top=0;left=0;bottom=0;right=0;pointerEvents=1;fontSize=16;" vertex="1" parent="bf3HpVVtW3jvYF63dSP6-116">
          <mxGeometry x="75" width="25" height="16" as="geometry">
            <mxRectangle width="25" height="16" as="alternateBounds" />
          </mxGeometry>
        </mxCell>
        <mxCell id="bf3HpVVtW3jvYF63dSP6-121" value="Paso3" style="text;html=1;align=center;verticalAlign=middle;resizable=0;points=[];autosize=1;strokeColor=none;fillColor=none;" vertex="1" parent="1">
          <mxGeometry x="210" y="470" width="60" height="30" as="geometry" />
        </mxCell>
        <mxCell id="bf3HpVVtW3jvYF63dSP6-122" value="" style="shape=table;startSize=0;container=1;collapsible=0;childLayout=tableLayout;fontSize=16;points=[[0,0,0,0,0],[0,0.25,0,0,0],[0,0.5,0,0,0],[0,0.75,0,0,0],[0,1,0,0,0],[0.25,0,0,0,0],[0.25,1,0,0,0],[0.5,0,0,0,0],[0.5,1,0,0,0],[0.75,0,0,0,0],[0.75,1,0,0,0],[1,0,0,0,0],[1,0.25,0,0,0],[1,0.5,0,0,0],[1,0.75,0,0,0],[1,1,0,0,0]];" vertex="1" parent="1">
          <mxGeometry x="170" y="640" width="100" height="79" as="geometry" />
        </mxCell>
        <mxCell id="bf3HpVVtW3jvYF63dSP6-123" value="" style="shape=tableRow;horizontal=0;startSize=0;swimlaneHead=0;swimlaneBody=0;strokeColor=inherit;top=0;left=0;bottom=0;right=0;collapsible=0;dropTarget=0;fillColor=none;points=[[0,0.5],[1,0.5]];portConstraint=eastwest;fontSize=16;" vertex="1" parent="bf3HpVVtW3jvYF63dSP6-122">
          <mxGeometry width="100" height="22" as="geometry" />
        </mxCell>
        <mxCell id="bf3HpVVtW3jvYF63dSP6-124" value="1" style="shape=partialRectangle;html=1;whiteSpace=wrap;connectable=0;strokeColor=inherit;overflow=hidden;fillColor=none;top=0;left=0;bottom=0;right=0;pointerEvents=1;fontSize=16;" vertex="1" parent="bf3HpVVtW3jvYF63dSP6-123">
          <mxGeometry width="25" height="22" as="geometry">
            <mxRectangle width="25" height="22" as="alternateBounds" />
          </mxGeometry>
        </mxCell>
        <mxCell id="bf3HpVVtW3jvYF63dSP6-125" value="" style="shape=partialRectangle;html=1;whiteSpace=wrap;connectable=0;strokeColor=inherit;overflow=hidden;fillColor=none;top=0;left=0;bottom=0;right=0;pointerEvents=1;fontSize=16;" vertex="1" parent="bf3HpVVtW3jvYF63dSP6-123">
          <mxGeometry x="25" width="25" height="22" as="geometry">
            <mxRectangle width="25" height="22" as="alternateBounds" />
          </mxGeometry>
        </mxCell>
        <mxCell id="bf3HpVVtW3jvYF63dSP6-126" value="" style="shape=partialRectangle;html=1;whiteSpace=wrap;connectable=0;strokeColor=inherit;overflow=hidden;fillColor=none;top=0;left=0;bottom=0;right=0;pointerEvents=1;fontSize=16;" vertex="1" parent="bf3HpVVtW3jvYF63dSP6-123">
          <mxGeometry x="50" width="25" height="22" as="geometry">
            <mxRectangle width="25" height="22" as="alternateBounds" />
          </mxGeometry>
        </mxCell>
        <mxCell id="bf3HpVVtW3jvYF63dSP6-127" value="" style="shape=partialRectangle;html=1;whiteSpace=wrap;connectable=0;strokeColor=inherit;overflow=hidden;fillColor=none;top=0;left=0;bottom=0;right=0;pointerEvents=1;fontSize=16;" vertex="1" parent="bf3HpVVtW3jvYF63dSP6-123">
          <mxGeometry x="75" width="25" height="22" as="geometry">
            <mxRectangle width="25" height="22" as="alternateBounds" />
          </mxGeometry>
        </mxCell>
        <mxCell id="bf3HpVVtW3jvYF63dSP6-128" value="" style="shape=tableRow;horizontal=0;startSize=0;swimlaneHead=0;swimlaneBody=0;strokeColor=inherit;top=0;left=0;bottom=0;right=0;collapsible=0;dropTarget=0;fillColor=none;points=[[0,0.5],[1,0.5]];portConstraint=eastwest;fontSize=16;" vertex="1" parent="bf3HpVVtW3jvYF63dSP6-122">
          <mxGeometry y="22" width="100" height="21" as="geometry" />
        </mxCell>
        <mxCell id="bf3HpVVtW3jvYF63dSP6-129" style="shape=partialRectangle;html=1;whiteSpace=wrap;connectable=0;strokeColor=inherit;overflow=hidden;fillColor=none;top=0;left=0;bottom=0;right=0;pointerEvents=1;fontSize=16;" vertex="1" parent="bf3HpVVtW3jvYF63dSP6-128">
          <mxGeometry width="25" height="21" as="geometry">
            <mxRectangle width="25" height="21" as="alternateBounds" />
          </mxGeometry>
        </mxCell>
        <mxCell id="bf3HpVVtW3jvYF63dSP6-130" value="" style="shape=partialRectangle;html=1;whiteSpace=wrap;connectable=0;strokeColor=inherit;overflow=hidden;fillColor=none;top=0;left=0;bottom=0;right=0;pointerEvents=1;fontSize=16;" vertex="1" parent="bf3HpVVtW3jvYF63dSP6-128">
          <mxGeometry x="25" width="25" height="21" as="geometry">
            <mxRectangle width="25" height="21" as="alternateBounds" />
          </mxGeometry>
        </mxCell>
        <mxCell id="bf3HpVVtW3jvYF63dSP6-131" value="" style="shape=partialRectangle;html=1;whiteSpace=wrap;connectable=0;strokeColor=inherit;overflow=hidden;fillColor=none;top=0;left=0;bottom=0;right=0;pointerEvents=1;fontSize=16;" vertex="1" parent="bf3HpVVtW3jvYF63dSP6-128">
          <mxGeometry x="50" width="25" height="21" as="geometry">
            <mxRectangle width="25" height="21" as="alternateBounds" />
          </mxGeometry>
        </mxCell>
        <mxCell id="bf3HpVVtW3jvYF63dSP6-132" value="1" style="shape=partialRectangle;html=1;whiteSpace=wrap;connectable=0;strokeColor=inherit;overflow=hidden;fillColor=none;top=0;left=0;bottom=0;right=0;pointerEvents=1;fontSize=16;" vertex="1" parent="bf3HpVVtW3jvYF63dSP6-128">
          <mxGeometry x="75" width="25" height="21" as="geometry">
            <mxRectangle width="25" height="21" as="alternateBounds" />
          </mxGeometry>
        </mxCell>
        <mxCell id="bf3HpVVtW3jvYF63dSP6-133" value="" style="shape=tableRow;horizontal=0;startSize=0;swimlaneHead=0;swimlaneBody=0;strokeColor=inherit;top=0;left=0;bottom=0;right=0;collapsible=0;dropTarget=0;fillColor=none;points=[[0,0.5],[1,0.5]];portConstraint=eastwest;fontSize=16;" vertex="1" parent="bf3HpVVtW3jvYF63dSP6-122">
          <mxGeometry y="43" width="100" height="20" as="geometry" />
        </mxCell>
        <mxCell id="bf3HpVVtW3jvYF63dSP6-134" style="shape=partialRectangle;html=1;whiteSpace=wrap;connectable=0;strokeColor=inherit;overflow=hidden;fillColor=none;top=0;left=0;bottom=0;right=0;pointerEvents=1;fontSize=16;" vertex="1" parent="bf3HpVVtW3jvYF63dSP6-133">
          <mxGeometry width="25" height="20" as="geometry">
            <mxRectangle width="25" height="20" as="alternateBounds" />
          </mxGeometry>
        </mxCell>
        <mxCell id="bf3HpVVtW3jvYF63dSP6-135" value="1" style="shape=partialRectangle;html=1;whiteSpace=wrap;connectable=0;strokeColor=inherit;overflow=hidden;fillColor=none;top=0;left=0;bottom=0;right=0;pointerEvents=1;fontSize=16;" vertex="1" parent="bf3HpVVtW3jvYF63dSP6-133">
          <mxGeometry x="25" width="25" height="20" as="geometry">
            <mxRectangle width="25" height="20" as="alternateBounds" />
          </mxGeometry>
        </mxCell>
        <mxCell id="bf3HpVVtW3jvYF63dSP6-136" value="" style="shape=partialRectangle;html=1;whiteSpace=wrap;connectable=0;strokeColor=inherit;overflow=hidden;fillColor=none;top=0;left=0;bottom=0;right=0;pointerEvents=1;fontSize=16;" vertex="1" parent="bf3HpVVtW3jvYF63dSP6-133">
          <mxGeometry x="50" width="25" height="20" as="geometry">
            <mxRectangle width="25" height="20" as="alternateBounds" />
          </mxGeometry>
        </mxCell>
        <mxCell id="bf3HpVVtW3jvYF63dSP6-137" value="" style="shape=partialRectangle;html=1;whiteSpace=wrap;connectable=0;strokeColor=inherit;overflow=hidden;fillColor=none;top=0;left=0;bottom=0;right=0;pointerEvents=1;fontSize=16;" vertex="1" parent="bf3HpVVtW3jvYF63dSP6-133">
          <mxGeometry x="75" width="25" height="20" as="geometry">
            <mxRectangle width="25" height="20" as="alternateBounds" />
          </mxGeometry>
        </mxCell>
        <mxCell id="bf3HpVVtW3jvYF63dSP6-138" style="shape=tableRow;horizontal=0;startSize=0;swimlaneHead=0;swimlaneBody=0;strokeColor=inherit;top=0;left=0;bottom=0;right=0;collapsible=0;dropTarget=0;fillColor=none;points=[[0,0.5],[1,0.5]];portConstraint=eastwest;fontSize=16;" vertex="1" parent="bf3HpVVtW3jvYF63dSP6-122">
          <mxGeometry y="63" width="100" height="16" as="geometry" />
        </mxCell>
        <mxCell id="bf3HpVVtW3jvYF63dSP6-139" style="shape=partialRectangle;html=1;whiteSpace=wrap;connectable=0;strokeColor=inherit;overflow=hidden;fillColor=none;top=0;left=0;bottom=0;right=0;pointerEvents=1;fontSize=16;" vertex="1" parent="bf3HpVVtW3jvYF63dSP6-138">
          <mxGeometry width="25" height="16" as="geometry">
            <mxRectangle width="25" height="16" as="alternateBounds" />
          </mxGeometry>
        </mxCell>
        <mxCell id="bf3HpVVtW3jvYF63dSP6-140" style="shape=partialRectangle;html=1;whiteSpace=wrap;connectable=0;strokeColor=inherit;overflow=hidden;fillColor=none;top=0;left=0;bottom=0;right=0;pointerEvents=1;fontSize=16;" vertex="1" parent="bf3HpVVtW3jvYF63dSP6-138">
          <mxGeometry x="25" width="25" height="16" as="geometry">
            <mxRectangle width="25" height="16" as="alternateBounds" />
          </mxGeometry>
        </mxCell>
        <mxCell id="bf3HpVVtW3jvYF63dSP6-141" style="shape=partialRectangle;html=1;whiteSpace=wrap;connectable=0;strokeColor=inherit;overflow=hidden;fillColor=none;top=0;left=0;bottom=0;right=0;pointerEvents=1;fontSize=16;" vertex="1" parent="bf3HpVVtW3jvYF63dSP6-138">
          <mxGeometry x="50" width="25" height="16" as="geometry">
            <mxRectangle width="25" height="16" as="alternateBounds" />
          </mxGeometry>
        </mxCell>
        <mxCell id="bf3HpVVtW3jvYF63dSP6-142" style="shape=partialRectangle;html=1;whiteSpace=wrap;connectable=0;strokeColor=inherit;overflow=hidden;fillColor=none;top=0;left=0;bottom=0;right=0;pointerEvents=1;fontSize=16;" vertex="1" parent="bf3HpVVtW3jvYF63dSP6-138">
          <mxGeometry x="75" width="25" height="16" as="geometry">
            <mxRectangle width="25" height="16" as="alternateBounds" />
          </mxGeometry>
        </mxCell>
        <mxCell id="bf3HpVVtW3jvYF63dSP6-143" value="Paso4" style="text;html=1;align=center;verticalAlign=middle;resizable=0;points=[];autosize=1;strokeColor=none;fillColor=none;" vertex="1" parent="1">
          <mxGeometry x="170" y="600" width="60" height="30" as="geometry" />
        </mxCell>
        <mxCell id="bf3HpVVtW3jvYF63dSP6-149" value="" style="shape=table;startSize=0;container=1;collapsible=0;childLayout=tableLayout;fontSize=16;points=[[0,0,0,0,0],[0,0.25,0,0,0],[0,0.5,0,0,0],[0,0.75,0,0,0],[0,1,0,0,0],[0.25,0,0,0,0],[0.25,1,0,0,0],[0.5,0,0,0,0],[0.5,1,0,0,0],[0.75,0,0,0,0],[0.75,1,0,0,0],[1,0,0,0,0],[1,0.25,0,0,0],[1,0.5,0,0,0],[1,0.75,0,0,0],[1,1,0,0,0]];" vertex="1" parent="1">
          <mxGeometry x="500" y="347" width="100" height="83" as="geometry" />
        </mxCell>
        <mxCell id="bf3HpVVtW3jvYF63dSP6-150" value="" style="shape=tableRow;horizontal=0;startSize=0;swimlaneHead=0;swimlaneBody=0;strokeColor=inherit;top=0;left=0;bottom=0;right=0;collapsible=0;dropTarget=0;fillColor=none;points=[[0,0.5],[1,0.5]];portConstraint=eastwest;fontSize=16;" vertex="1" parent="bf3HpVVtW3jvYF63dSP6-149">
          <mxGeometry width="100" height="22" as="geometry" />
        </mxCell>
        <mxCell id="bf3HpVVtW3jvYF63dSP6-151" value="" style="shape=partialRectangle;html=1;whiteSpace=wrap;connectable=0;strokeColor=inherit;overflow=hidden;fillColor=none;top=0;left=0;bottom=0;right=0;pointerEvents=1;fontSize=16;" vertex="1" parent="bf3HpVVtW3jvYF63dSP6-150">
          <mxGeometry width="25" height="22" as="geometry">
            <mxRectangle width="25" height="22" as="alternateBounds" />
          </mxGeometry>
        </mxCell>
        <mxCell id="bf3HpVVtW3jvYF63dSP6-152" value="1" style="shape=partialRectangle;html=1;whiteSpace=wrap;connectable=0;strokeColor=inherit;overflow=hidden;fillColor=none;top=0;left=0;bottom=0;right=0;pointerEvents=1;fontSize=16;" vertex="1" parent="bf3HpVVtW3jvYF63dSP6-150">
          <mxGeometry x="25" width="25" height="22" as="geometry">
            <mxRectangle width="25" height="22" as="alternateBounds" />
          </mxGeometry>
        </mxCell>
        <mxCell id="bf3HpVVtW3jvYF63dSP6-153" value="" style="shape=partialRectangle;html=1;whiteSpace=wrap;connectable=0;strokeColor=inherit;overflow=hidden;fillColor=none;top=0;left=0;bottom=0;right=0;pointerEvents=1;fontSize=16;" vertex="1" parent="bf3HpVVtW3jvYF63dSP6-150">
          <mxGeometry x="50" width="25" height="22" as="geometry">
            <mxRectangle width="25" height="22" as="alternateBounds" />
          </mxGeometry>
        </mxCell>
        <mxCell id="bf3HpVVtW3jvYF63dSP6-154" value="" style="shape=partialRectangle;html=1;whiteSpace=wrap;connectable=0;strokeColor=inherit;overflow=hidden;fillColor=none;top=0;left=0;bottom=0;right=0;pointerEvents=1;fontSize=16;" vertex="1" parent="bf3HpVVtW3jvYF63dSP6-150">
          <mxGeometry x="75" width="25" height="22" as="geometry">
            <mxRectangle width="25" height="22" as="alternateBounds" />
          </mxGeometry>
        </mxCell>
        <mxCell id="bf3HpVVtW3jvYF63dSP6-155" value="" style="shape=tableRow;horizontal=0;startSize=0;swimlaneHead=0;swimlaneBody=0;strokeColor=inherit;top=0;left=0;bottom=0;right=0;collapsible=0;dropTarget=0;fillColor=none;points=[[0,0.5],[1,0.5]];portConstraint=eastwest;fontSize=16;" vertex="1" parent="bf3HpVVtW3jvYF63dSP6-149">
          <mxGeometry y="22" width="100" height="21" as="geometry" />
        </mxCell>
        <mxCell id="bf3HpVVtW3jvYF63dSP6-156" style="shape=partialRectangle;html=1;whiteSpace=wrap;connectable=0;strokeColor=inherit;overflow=hidden;fillColor=none;top=0;left=0;bottom=0;right=0;pointerEvents=1;fontSize=16;" vertex="1" parent="bf3HpVVtW3jvYF63dSP6-155">
          <mxGeometry width="25" height="21" as="geometry">
            <mxRectangle width="25" height="21" as="alternateBounds" />
          </mxGeometry>
        </mxCell>
        <mxCell id="bf3HpVVtW3jvYF63dSP6-157" value="" style="shape=partialRectangle;html=1;whiteSpace=wrap;connectable=0;strokeColor=inherit;overflow=hidden;fillColor=none;top=0;left=0;bottom=0;right=0;pointerEvents=1;fontSize=16;" vertex="1" parent="bf3HpVVtW3jvYF63dSP6-155">
          <mxGeometry x="25" width="25" height="21" as="geometry">
            <mxRectangle width="25" height="21" as="alternateBounds" />
          </mxGeometry>
        </mxCell>
        <mxCell id="bf3HpVVtW3jvYF63dSP6-158" value="" style="shape=partialRectangle;html=1;whiteSpace=wrap;connectable=0;strokeColor=inherit;overflow=hidden;fillColor=none;top=0;left=0;bottom=0;right=0;pointerEvents=1;fontSize=16;" vertex="1" parent="bf3HpVVtW3jvYF63dSP6-155">
          <mxGeometry x="50" width="25" height="21" as="geometry">
            <mxRectangle width="25" height="21" as="alternateBounds" />
          </mxGeometry>
        </mxCell>
        <mxCell id="bf3HpVVtW3jvYF63dSP6-159" value="" style="shape=partialRectangle;html=1;whiteSpace=wrap;connectable=0;strokeColor=inherit;overflow=hidden;fillColor=none;top=0;left=0;bottom=0;right=0;pointerEvents=1;fontSize=16;" vertex="1" parent="bf3HpVVtW3jvYF63dSP6-155">
          <mxGeometry x="75" width="25" height="21" as="geometry">
            <mxRectangle width="25" height="21" as="alternateBounds" />
          </mxGeometry>
        </mxCell>
        <mxCell id="bf3HpVVtW3jvYF63dSP6-160" value="" style="shape=tableRow;horizontal=0;startSize=0;swimlaneHead=0;swimlaneBody=0;strokeColor=inherit;top=0;left=0;bottom=0;right=0;collapsible=0;dropTarget=0;fillColor=none;points=[[0,0.5],[1,0.5]];portConstraint=eastwest;fontSize=16;" vertex="1" parent="bf3HpVVtW3jvYF63dSP6-149">
          <mxGeometry y="43" width="100" height="20" as="geometry" />
        </mxCell>
        <mxCell id="bf3HpVVtW3jvYF63dSP6-161" style="shape=partialRectangle;html=1;whiteSpace=wrap;connectable=0;strokeColor=inherit;overflow=hidden;fillColor=none;top=0;left=0;bottom=0;right=0;pointerEvents=1;fontSize=16;" vertex="1" parent="bf3HpVVtW3jvYF63dSP6-160">
          <mxGeometry width="25" height="20" as="geometry">
            <mxRectangle width="25" height="20" as="alternateBounds" />
          </mxGeometry>
        </mxCell>
        <mxCell id="bf3HpVVtW3jvYF63dSP6-162" value="" style="shape=partialRectangle;html=1;whiteSpace=wrap;connectable=0;strokeColor=inherit;overflow=hidden;fillColor=none;top=0;left=0;bottom=0;right=0;pointerEvents=1;fontSize=16;" vertex="1" parent="bf3HpVVtW3jvYF63dSP6-160">
          <mxGeometry x="25" width="25" height="20" as="geometry">
            <mxRectangle width="25" height="20" as="alternateBounds" />
          </mxGeometry>
        </mxCell>
        <mxCell id="bf3HpVVtW3jvYF63dSP6-163" value="" style="shape=partialRectangle;html=1;whiteSpace=wrap;connectable=0;strokeColor=inherit;overflow=hidden;fillColor=none;top=0;left=0;bottom=0;right=0;pointerEvents=1;fontSize=16;" vertex="1" parent="bf3HpVVtW3jvYF63dSP6-160">
          <mxGeometry x="50" width="25" height="20" as="geometry">
            <mxRectangle width="25" height="20" as="alternateBounds" />
          </mxGeometry>
        </mxCell>
        <mxCell id="bf3HpVVtW3jvYF63dSP6-164" value="" style="shape=partialRectangle;html=1;whiteSpace=wrap;connectable=0;strokeColor=inherit;overflow=hidden;fillColor=none;top=0;left=0;bottom=0;right=0;pointerEvents=1;fontSize=16;" vertex="1" parent="bf3HpVVtW3jvYF63dSP6-160">
          <mxGeometry x="75" width="25" height="20" as="geometry">
            <mxRectangle width="25" height="20" as="alternateBounds" />
          </mxGeometry>
        </mxCell>
        <mxCell id="bf3HpVVtW3jvYF63dSP6-165" style="shape=tableRow;horizontal=0;startSize=0;swimlaneHead=0;swimlaneBody=0;strokeColor=inherit;top=0;left=0;bottom=0;right=0;collapsible=0;dropTarget=0;fillColor=none;points=[[0,0.5],[1,0.5]];portConstraint=eastwest;fontSize=16;" vertex="1" parent="bf3HpVVtW3jvYF63dSP6-149">
          <mxGeometry y="63" width="100" height="20" as="geometry" />
        </mxCell>
        <mxCell id="bf3HpVVtW3jvYF63dSP6-166" style="shape=partialRectangle;html=1;whiteSpace=wrap;connectable=0;strokeColor=inherit;overflow=hidden;fillColor=none;top=0;left=0;bottom=0;right=0;pointerEvents=1;fontSize=16;" vertex="1" parent="bf3HpVVtW3jvYF63dSP6-165">
          <mxGeometry width="25" height="20" as="geometry">
            <mxRectangle width="25" height="20" as="alternateBounds" />
          </mxGeometry>
        </mxCell>
        <mxCell id="bf3HpVVtW3jvYF63dSP6-167" style="shape=partialRectangle;html=1;whiteSpace=wrap;connectable=0;strokeColor=inherit;overflow=hidden;fillColor=none;top=0;left=0;bottom=0;right=0;pointerEvents=1;fontSize=16;" vertex="1" parent="bf3HpVVtW3jvYF63dSP6-165">
          <mxGeometry x="25" width="25" height="20" as="geometry">
            <mxRectangle width="25" height="20" as="alternateBounds" />
          </mxGeometry>
        </mxCell>
        <mxCell id="bf3HpVVtW3jvYF63dSP6-168" style="shape=partialRectangle;html=1;whiteSpace=wrap;connectable=0;strokeColor=inherit;overflow=hidden;fillColor=none;top=0;left=0;bottom=0;right=0;pointerEvents=1;fontSize=16;" vertex="1" parent="bf3HpVVtW3jvYF63dSP6-165">
          <mxGeometry x="50" width="25" height="20" as="geometry">
            <mxRectangle width="25" height="20" as="alternateBounds" />
          </mxGeometry>
        </mxCell>
        <mxCell id="bf3HpVVtW3jvYF63dSP6-169" style="shape=partialRectangle;html=1;whiteSpace=wrap;connectable=0;strokeColor=inherit;overflow=hidden;fillColor=none;top=0;left=0;bottom=0;right=0;pointerEvents=1;fontSize=16;" vertex="1" parent="bf3HpVVtW3jvYF63dSP6-165">
          <mxGeometry x="75" width="25" height="20" as="geometry">
            <mxRectangle width="25" height="20" as="alternateBounds" />
          </mxGeometry>
        </mxCell>
        <mxCell id="bf3HpVVtW3jvYF63dSP6-170" value="Paso5" style="text;html=1;align=center;verticalAlign=middle;resizable=0;points=[];autosize=1;strokeColor=none;fillColor=none;" vertex="1" parent="1">
          <mxGeometry x="414" y="330" width="60" height="30" as="geometry" />
        </mxCell>
        <mxCell id="bf3HpVVtW3jvYF63dSP6-171" value="" style="endArrow=classic;html=1;rounded=0;exitX=0;exitY=0.5;exitDx=0;exitDy=0;" edge="1" parent="1" source="bf3HpVVtW3jvYF63dSP6-10" target="bf3HpVVtW3jvYF63dSP6-57">
          <mxGeometry width="50" height="50" relative="1" as="geometry">
            <mxPoint x="390" y="480" as="sourcePoint" />
            <mxPoint x="440" y="430" as="targetPoint" />
          </mxGeometry>
        </mxCell>
        <mxCell id="bf3HpVVtW3jvYF63dSP6-172" value="" style="endArrow=classic;html=1;rounded=0;exitX=1;exitY=0.5;exitDx=0;exitDy=0;" edge="1" parent="1" source="bf3HpVVtW3jvYF63dSP6-72" target="bf3HpVVtW3jvYF63dSP6-101">
          <mxGeometry width="50" height="50" relative="1" as="geometry">
            <mxPoint x="390" y="480" as="sourcePoint" />
            <mxPoint x="440" y="430" as="targetPoint" />
          </mxGeometry>
        </mxCell>
        <mxCell id="bf3HpVVtW3jvYF63dSP6-173" value="" style="endArrow=classic;html=1;rounded=0;entryX=0.687;entryY=-0.037;entryDx=0;entryDy=0;entryPerimeter=0;" edge="1" parent="1" source="bf3HpVVtW3jvYF63dSP6-72" target="bf3HpVVtW3jvYF63dSP6-79">
          <mxGeometry width="50" height="50" relative="1" as="geometry">
            <mxPoint x="390" y="480" as="sourcePoint" />
            <mxPoint x="440" y="430" as="targetPoint" />
          </mxGeometry>
        </mxCell>
        <mxCell id="bf3HpVVtW3jvYF63dSP6-174" value="" style="endArrow=classic;html=1;rounded=0;exitX=0.22;exitY=1.105;exitDx=0;exitDy=0;exitPerimeter=0;" edge="1" parent="1" source="bf3HpVVtW3jvYF63dSP6-116" target="bf3HpVVtW3jvYF63dSP6-123">
          <mxGeometry width="50" height="50" relative="1" as="geometry">
            <mxPoint x="390" y="480" as="sourcePoint" />
            <mxPoint x="440" y="430" as="targetPoint" />
          </mxGeometry>
        </mxCell>
        <mxCell id="bf3HpVVtW3jvYF63dSP6-175" value="" style="endArrow=classic;html=1;rounded=0;" edge="1" parent="1" source="bf3HpVVtW3jvYF63dSP6-30" target="bf3HpVVtW3jvYF63dSP6-150">
          <mxGeometry width="50" height="50" relative="1" as="geometry">
            <mxPoint x="390" y="410" as="sourcePoint" />
            <mxPoint x="440" y="360" as="targetPoint" />
          </mxGeometry>
        </mxCell>
        <mxCell id="bf3HpVVtW3jvYF63dSP6-176" value="" style="shape=table;startSize=0;container=1;collapsible=0;childLayout=tableLayout;fontSize=16;points=[[0,0,0,0,0],[0,0.25,0,0,0],[0,0.5,0,0,0],[0,0.75,0,0,0],[0,1,0,0,0],[0.25,0,0,0,0],[0.25,1,0,0,0],[0.5,0,0,0,0],[0.5,1,0,0,0],[0.75,0,0,0,0],[0.75,1,0,0,0],[1,0,0,0,0],[1,0.25,0,0,0],[1,0.5,0,0,0],[1,0.75,0,0,0],[1,1,0,0,0]];" vertex="1" parent="1">
          <mxGeometry x="450" y="502" width="100" height="83" as="geometry" />
        </mxCell>
        <mxCell id="bf3HpVVtW3jvYF63dSP6-177" value="" style="shape=tableRow;horizontal=0;startSize=0;swimlaneHead=0;swimlaneBody=0;strokeColor=inherit;top=0;left=0;bottom=0;right=0;collapsible=0;dropTarget=0;fillColor=none;points=[[0,0.5],[1,0.5]];portConstraint=eastwest;fontSize=16;" vertex="1" parent="bf3HpVVtW3jvYF63dSP6-176">
          <mxGeometry width="100" height="22" as="geometry" />
        </mxCell>
        <mxCell id="bf3HpVVtW3jvYF63dSP6-178" value="" style="shape=partialRectangle;html=1;whiteSpace=wrap;connectable=0;strokeColor=inherit;overflow=hidden;fillColor=none;top=0;left=0;bottom=0;right=0;pointerEvents=1;fontSize=16;" vertex="1" parent="bf3HpVVtW3jvYF63dSP6-177">
          <mxGeometry width="25" height="22" as="geometry">
            <mxRectangle width="25" height="22" as="alternateBounds" />
          </mxGeometry>
        </mxCell>
        <mxCell id="bf3HpVVtW3jvYF63dSP6-179" value="1" style="shape=partialRectangle;html=1;whiteSpace=wrap;connectable=0;strokeColor=inherit;overflow=hidden;fillColor=none;top=0;left=0;bottom=0;right=0;pointerEvents=1;fontSize=16;" vertex="1" parent="bf3HpVVtW3jvYF63dSP6-177">
          <mxGeometry x="25" width="25" height="22" as="geometry">
            <mxRectangle width="25" height="22" as="alternateBounds" />
          </mxGeometry>
        </mxCell>
        <mxCell id="bf3HpVVtW3jvYF63dSP6-180" value="" style="shape=partialRectangle;html=1;whiteSpace=wrap;connectable=0;strokeColor=inherit;overflow=hidden;fillColor=none;top=0;left=0;bottom=0;right=0;pointerEvents=1;fontSize=16;" vertex="1" parent="bf3HpVVtW3jvYF63dSP6-177">
          <mxGeometry x="50" width="25" height="22" as="geometry">
            <mxRectangle width="25" height="22" as="alternateBounds" />
          </mxGeometry>
        </mxCell>
        <mxCell id="bf3HpVVtW3jvYF63dSP6-181" value="" style="shape=partialRectangle;html=1;whiteSpace=wrap;connectable=0;strokeColor=inherit;overflow=hidden;fillColor=none;top=0;left=0;bottom=0;right=0;pointerEvents=1;fontSize=16;" vertex="1" parent="bf3HpVVtW3jvYF63dSP6-177">
          <mxGeometry x="75" width="25" height="22" as="geometry">
            <mxRectangle width="25" height="22" as="alternateBounds" />
          </mxGeometry>
        </mxCell>
        <mxCell id="bf3HpVVtW3jvYF63dSP6-182" value="" style="shape=tableRow;horizontal=0;startSize=0;swimlaneHead=0;swimlaneBody=0;strokeColor=inherit;top=0;left=0;bottom=0;right=0;collapsible=0;dropTarget=0;fillColor=none;points=[[0,0.5],[1,0.5]];portConstraint=eastwest;fontSize=16;" vertex="1" parent="bf3HpVVtW3jvYF63dSP6-176">
          <mxGeometry y="22" width="100" height="21" as="geometry" />
        </mxCell>
        <mxCell id="bf3HpVVtW3jvYF63dSP6-183" style="shape=partialRectangle;html=1;whiteSpace=wrap;connectable=0;strokeColor=inherit;overflow=hidden;fillColor=none;top=0;left=0;bottom=0;right=0;pointerEvents=1;fontSize=16;" vertex="1" parent="bf3HpVVtW3jvYF63dSP6-182">
          <mxGeometry width="25" height="21" as="geometry">
            <mxRectangle width="25" height="21" as="alternateBounds" />
          </mxGeometry>
        </mxCell>
        <mxCell id="bf3HpVVtW3jvYF63dSP6-184" value="" style="shape=partialRectangle;html=1;whiteSpace=wrap;connectable=0;strokeColor=inherit;overflow=hidden;fillColor=none;top=0;left=0;bottom=0;right=0;pointerEvents=1;fontSize=16;" vertex="1" parent="bf3HpVVtW3jvYF63dSP6-182">
          <mxGeometry x="25" width="25" height="21" as="geometry">
            <mxRectangle width="25" height="21" as="alternateBounds" />
          </mxGeometry>
        </mxCell>
        <mxCell id="bf3HpVVtW3jvYF63dSP6-185" value="" style="shape=partialRectangle;html=1;whiteSpace=wrap;connectable=0;strokeColor=inherit;overflow=hidden;fillColor=none;top=0;left=0;bottom=0;right=0;pointerEvents=1;fontSize=16;" vertex="1" parent="bf3HpVVtW3jvYF63dSP6-182">
          <mxGeometry x="50" width="25" height="21" as="geometry">
            <mxRectangle width="25" height="21" as="alternateBounds" />
          </mxGeometry>
        </mxCell>
        <mxCell id="bf3HpVVtW3jvYF63dSP6-186" value="1" style="shape=partialRectangle;html=1;whiteSpace=wrap;connectable=0;strokeColor=inherit;overflow=hidden;fillColor=none;top=0;left=0;bottom=0;right=0;pointerEvents=1;fontSize=16;" vertex="1" parent="bf3HpVVtW3jvYF63dSP6-182">
          <mxGeometry x="75" width="25" height="21" as="geometry">
            <mxRectangle width="25" height="21" as="alternateBounds" />
          </mxGeometry>
        </mxCell>
        <mxCell id="bf3HpVVtW3jvYF63dSP6-187" value="" style="shape=tableRow;horizontal=0;startSize=0;swimlaneHead=0;swimlaneBody=0;strokeColor=inherit;top=0;left=0;bottom=0;right=0;collapsible=0;dropTarget=0;fillColor=none;points=[[0,0.5],[1,0.5]];portConstraint=eastwest;fontSize=16;" vertex="1" parent="bf3HpVVtW3jvYF63dSP6-176">
          <mxGeometry y="43" width="100" height="20" as="geometry" />
        </mxCell>
        <mxCell id="bf3HpVVtW3jvYF63dSP6-188" style="shape=partialRectangle;html=1;whiteSpace=wrap;connectable=0;strokeColor=inherit;overflow=hidden;fillColor=none;top=0;left=0;bottom=0;right=0;pointerEvents=1;fontSize=16;" vertex="1" parent="bf3HpVVtW3jvYF63dSP6-187">
          <mxGeometry width="25" height="20" as="geometry">
            <mxRectangle width="25" height="20" as="alternateBounds" />
          </mxGeometry>
        </mxCell>
        <mxCell id="bf3HpVVtW3jvYF63dSP6-189" value="" style="shape=partialRectangle;html=1;whiteSpace=wrap;connectable=0;strokeColor=inherit;overflow=hidden;fillColor=none;top=0;left=0;bottom=0;right=0;pointerEvents=1;fontSize=16;" vertex="1" parent="bf3HpVVtW3jvYF63dSP6-187">
          <mxGeometry x="25" width="25" height="20" as="geometry">
            <mxRectangle width="25" height="20" as="alternateBounds" />
          </mxGeometry>
        </mxCell>
        <mxCell id="bf3HpVVtW3jvYF63dSP6-190" value="" style="shape=partialRectangle;html=1;whiteSpace=wrap;connectable=0;strokeColor=inherit;overflow=hidden;fillColor=none;top=0;left=0;bottom=0;right=0;pointerEvents=1;fontSize=16;" vertex="1" parent="bf3HpVVtW3jvYF63dSP6-187">
          <mxGeometry x="50" width="25" height="20" as="geometry">
            <mxRectangle width="25" height="20" as="alternateBounds" />
          </mxGeometry>
        </mxCell>
        <mxCell id="bf3HpVVtW3jvYF63dSP6-191" value="" style="shape=partialRectangle;html=1;whiteSpace=wrap;connectable=0;strokeColor=inherit;overflow=hidden;fillColor=none;top=0;left=0;bottom=0;right=0;pointerEvents=1;fontSize=16;" vertex="1" parent="bf3HpVVtW3jvYF63dSP6-187">
          <mxGeometry x="75" width="25" height="20" as="geometry">
            <mxRectangle width="25" height="20" as="alternateBounds" />
          </mxGeometry>
        </mxCell>
        <mxCell id="bf3HpVVtW3jvYF63dSP6-192" style="shape=tableRow;horizontal=0;startSize=0;swimlaneHead=0;swimlaneBody=0;strokeColor=inherit;top=0;left=0;bottom=0;right=0;collapsible=0;dropTarget=0;fillColor=none;points=[[0,0.5],[1,0.5]];portConstraint=eastwest;fontSize=16;" vertex="1" parent="bf3HpVVtW3jvYF63dSP6-176">
          <mxGeometry y="63" width="100" height="20" as="geometry" />
        </mxCell>
        <mxCell id="bf3HpVVtW3jvYF63dSP6-193" style="shape=partialRectangle;html=1;whiteSpace=wrap;connectable=0;strokeColor=inherit;overflow=hidden;fillColor=none;top=0;left=0;bottom=0;right=0;pointerEvents=1;fontSize=16;" vertex="1" parent="bf3HpVVtW3jvYF63dSP6-192">
          <mxGeometry width="25" height="20" as="geometry">
            <mxRectangle width="25" height="20" as="alternateBounds" />
          </mxGeometry>
        </mxCell>
        <mxCell id="bf3HpVVtW3jvYF63dSP6-194" style="shape=partialRectangle;html=1;whiteSpace=wrap;connectable=0;strokeColor=inherit;overflow=hidden;fillColor=none;top=0;left=0;bottom=0;right=0;pointerEvents=1;fontSize=16;" vertex="1" parent="bf3HpVVtW3jvYF63dSP6-192">
          <mxGeometry x="25" width="25" height="20" as="geometry">
            <mxRectangle width="25" height="20" as="alternateBounds" />
          </mxGeometry>
        </mxCell>
        <mxCell id="bf3HpVVtW3jvYF63dSP6-195" style="shape=partialRectangle;html=1;whiteSpace=wrap;connectable=0;strokeColor=inherit;overflow=hidden;fillColor=none;top=0;left=0;bottom=0;right=0;pointerEvents=1;fontSize=16;" vertex="1" parent="bf3HpVVtW3jvYF63dSP6-192">
          <mxGeometry x="50" width="25" height="20" as="geometry">
            <mxRectangle width="25" height="20" as="alternateBounds" />
          </mxGeometry>
        </mxCell>
        <mxCell id="bf3HpVVtW3jvYF63dSP6-196" style="shape=partialRectangle;html=1;whiteSpace=wrap;connectable=0;strokeColor=inherit;overflow=hidden;fillColor=none;top=0;left=0;bottom=0;right=0;pointerEvents=1;fontSize=16;" vertex="1" parent="bf3HpVVtW3jvYF63dSP6-192">
          <mxGeometry x="75" width="25" height="20" as="geometry">
            <mxRectangle width="25" height="20" as="alternateBounds" />
          </mxGeometry>
        </mxCell>
        <mxCell id="bf3HpVVtW3jvYF63dSP6-197" value="" style="shape=table;startSize=0;container=1;collapsible=0;childLayout=tableLayout;fontSize=16;points=[[0,0,0,0,0],[0,0.25,0,0,0],[0,0.5,0,0,0],[0,0.75,0,0,0],[0,1,0,0,0],[0.25,0,0,0,0],[0.25,1,0,0,0],[0.5,0,0,0,0],[0.5,1,0,0,0],[0.75,0,0,0,0],[0.75,1,0,0,0],[1,0,0,0,0],[1,0.25,0,0,0],[1,0.5,0,0,0],[1,0.75,0,0,0],[1,1,0,0,0]];" vertex="1" parent="1">
          <mxGeometry x="380" y="640" width="100" height="83" as="geometry" />
        </mxCell>
        <mxCell id="bf3HpVVtW3jvYF63dSP6-198" value="" style="shape=tableRow;horizontal=0;startSize=0;swimlaneHead=0;swimlaneBody=0;strokeColor=inherit;top=0;left=0;bottom=0;right=0;collapsible=0;dropTarget=0;fillColor=none;points=[[0,0.5],[1,0.5]];portConstraint=eastwest;fontSize=16;" vertex="1" parent="bf3HpVVtW3jvYF63dSP6-197">
          <mxGeometry width="100" height="22" as="geometry" />
        </mxCell>
        <mxCell id="bf3HpVVtW3jvYF63dSP6-199" value="" style="shape=partialRectangle;html=1;whiteSpace=wrap;connectable=0;strokeColor=inherit;overflow=hidden;fillColor=none;top=0;left=0;bottom=0;right=0;pointerEvents=1;fontSize=16;" vertex="1" parent="bf3HpVVtW3jvYF63dSP6-198">
          <mxGeometry width="25" height="22" as="geometry">
            <mxRectangle width="25" height="22" as="alternateBounds" />
          </mxGeometry>
        </mxCell>
        <mxCell id="bf3HpVVtW3jvYF63dSP6-200" value="1" style="shape=partialRectangle;html=1;whiteSpace=wrap;connectable=0;strokeColor=inherit;overflow=hidden;fillColor=none;top=0;left=0;bottom=0;right=0;pointerEvents=1;fontSize=16;" vertex="1" parent="bf3HpVVtW3jvYF63dSP6-198">
          <mxGeometry x="25" width="25" height="22" as="geometry">
            <mxRectangle width="25" height="22" as="alternateBounds" />
          </mxGeometry>
        </mxCell>
        <mxCell id="bf3HpVVtW3jvYF63dSP6-201" value="" style="shape=partialRectangle;html=1;whiteSpace=wrap;connectable=0;strokeColor=inherit;overflow=hidden;fillColor=none;top=0;left=0;bottom=0;right=0;pointerEvents=1;fontSize=16;" vertex="1" parent="bf3HpVVtW3jvYF63dSP6-198">
          <mxGeometry x="50" width="25" height="22" as="geometry">
            <mxRectangle width="25" height="22" as="alternateBounds" />
          </mxGeometry>
        </mxCell>
        <mxCell id="bf3HpVVtW3jvYF63dSP6-202" value="" style="shape=partialRectangle;html=1;whiteSpace=wrap;connectable=0;strokeColor=inherit;overflow=hidden;fillColor=none;top=0;left=0;bottom=0;right=0;pointerEvents=1;fontSize=16;" vertex="1" parent="bf3HpVVtW3jvYF63dSP6-198">
          <mxGeometry x="75" width="25" height="22" as="geometry">
            <mxRectangle width="25" height="22" as="alternateBounds" />
          </mxGeometry>
        </mxCell>
        <mxCell id="bf3HpVVtW3jvYF63dSP6-203" value="" style="shape=tableRow;horizontal=0;startSize=0;swimlaneHead=0;swimlaneBody=0;strokeColor=inherit;top=0;left=0;bottom=0;right=0;collapsible=0;dropTarget=0;fillColor=none;points=[[0,0.5],[1,0.5]];portConstraint=eastwest;fontSize=16;" vertex="1" parent="bf3HpVVtW3jvYF63dSP6-197">
          <mxGeometry y="22" width="100" height="21" as="geometry" />
        </mxCell>
        <mxCell id="bf3HpVVtW3jvYF63dSP6-204" style="shape=partialRectangle;html=1;whiteSpace=wrap;connectable=0;strokeColor=inherit;overflow=hidden;fillColor=none;top=0;left=0;bottom=0;right=0;pointerEvents=1;fontSize=16;" vertex="1" parent="bf3HpVVtW3jvYF63dSP6-203">
          <mxGeometry width="25" height="21" as="geometry">
            <mxRectangle width="25" height="21" as="alternateBounds" />
          </mxGeometry>
        </mxCell>
        <mxCell id="bf3HpVVtW3jvYF63dSP6-205" value="" style="shape=partialRectangle;html=1;whiteSpace=wrap;connectable=0;strokeColor=inherit;overflow=hidden;fillColor=none;top=0;left=0;bottom=0;right=0;pointerEvents=1;fontSize=16;" vertex="1" parent="bf3HpVVtW3jvYF63dSP6-203">
          <mxGeometry x="25" width="25" height="21" as="geometry">
            <mxRectangle width="25" height="21" as="alternateBounds" />
          </mxGeometry>
        </mxCell>
        <mxCell id="bf3HpVVtW3jvYF63dSP6-206" value="" style="shape=partialRectangle;html=1;whiteSpace=wrap;connectable=0;strokeColor=inherit;overflow=hidden;fillColor=none;top=0;left=0;bottom=0;right=0;pointerEvents=1;fontSize=16;" vertex="1" parent="bf3HpVVtW3jvYF63dSP6-203">
          <mxGeometry x="50" width="25" height="21" as="geometry">
            <mxRectangle width="25" height="21" as="alternateBounds" />
          </mxGeometry>
        </mxCell>
        <mxCell id="bf3HpVVtW3jvYF63dSP6-207" value="1" style="shape=partialRectangle;html=1;whiteSpace=wrap;connectable=0;strokeColor=inherit;overflow=hidden;fillColor=none;top=0;left=0;bottom=0;right=0;pointerEvents=1;fontSize=16;" vertex="1" parent="bf3HpVVtW3jvYF63dSP6-203">
          <mxGeometry x="75" width="25" height="21" as="geometry">
            <mxRectangle width="25" height="21" as="alternateBounds" />
          </mxGeometry>
        </mxCell>
        <mxCell id="bf3HpVVtW3jvYF63dSP6-208" value="" style="shape=tableRow;horizontal=0;startSize=0;swimlaneHead=0;swimlaneBody=0;strokeColor=inherit;top=0;left=0;bottom=0;right=0;collapsible=0;dropTarget=0;fillColor=none;points=[[0,0.5],[1,0.5]];portConstraint=eastwest;fontSize=16;" vertex="1" parent="bf3HpVVtW3jvYF63dSP6-197">
          <mxGeometry y="43" width="100" height="20" as="geometry" />
        </mxCell>
        <mxCell id="bf3HpVVtW3jvYF63dSP6-209" value="1" style="shape=partialRectangle;html=1;whiteSpace=wrap;connectable=0;strokeColor=inherit;overflow=hidden;fillColor=none;top=0;left=0;bottom=0;right=0;pointerEvents=1;fontSize=16;" vertex="1" parent="bf3HpVVtW3jvYF63dSP6-208">
          <mxGeometry width="25" height="20" as="geometry">
            <mxRectangle width="25" height="20" as="alternateBounds" />
          </mxGeometry>
        </mxCell>
        <mxCell id="bf3HpVVtW3jvYF63dSP6-210" value="" style="shape=partialRectangle;html=1;whiteSpace=wrap;connectable=0;strokeColor=inherit;overflow=hidden;fillColor=none;top=0;left=0;bottom=0;right=0;pointerEvents=1;fontSize=16;" vertex="1" parent="bf3HpVVtW3jvYF63dSP6-208">
          <mxGeometry x="25" width="25" height="20" as="geometry">
            <mxRectangle width="25" height="20" as="alternateBounds" />
          </mxGeometry>
        </mxCell>
        <mxCell id="bf3HpVVtW3jvYF63dSP6-211" value="" style="shape=partialRectangle;html=1;whiteSpace=wrap;connectable=0;strokeColor=inherit;overflow=hidden;fillColor=none;top=0;left=0;bottom=0;right=0;pointerEvents=1;fontSize=16;" vertex="1" parent="bf3HpVVtW3jvYF63dSP6-208">
          <mxGeometry x="50" width="25" height="20" as="geometry">
            <mxRectangle width="25" height="20" as="alternateBounds" />
          </mxGeometry>
        </mxCell>
        <mxCell id="bf3HpVVtW3jvYF63dSP6-212" value="" style="shape=partialRectangle;html=1;whiteSpace=wrap;connectable=0;strokeColor=inherit;overflow=hidden;fillColor=none;top=0;left=0;bottom=0;right=0;pointerEvents=1;fontSize=16;" vertex="1" parent="bf3HpVVtW3jvYF63dSP6-208">
          <mxGeometry x="75" width="25" height="20" as="geometry">
            <mxRectangle width="25" height="20" as="alternateBounds" />
          </mxGeometry>
        </mxCell>
        <mxCell id="bf3HpVVtW3jvYF63dSP6-213" style="shape=tableRow;horizontal=0;startSize=0;swimlaneHead=0;swimlaneBody=0;strokeColor=inherit;top=0;left=0;bottom=0;right=0;collapsible=0;dropTarget=0;fillColor=none;points=[[0,0.5],[1,0.5]];portConstraint=eastwest;fontSize=16;" vertex="1" parent="bf3HpVVtW3jvYF63dSP6-197">
          <mxGeometry y="63" width="100" height="20" as="geometry" />
        </mxCell>
        <mxCell id="bf3HpVVtW3jvYF63dSP6-214" style="shape=partialRectangle;html=1;whiteSpace=wrap;connectable=0;strokeColor=inherit;overflow=hidden;fillColor=none;top=0;left=0;bottom=0;right=0;pointerEvents=1;fontSize=16;" vertex="1" parent="bf3HpVVtW3jvYF63dSP6-213">
          <mxGeometry width="25" height="20" as="geometry">
            <mxRectangle width="25" height="20" as="alternateBounds" />
          </mxGeometry>
        </mxCell>
        <mxCell id="bf3HpVVtW3jvYF63dSP6-215" style="shape=partialRectangle;html=1;whiteSpace=wrap;connectable=0;strokeColor=inherit;overflow=hidden;fillColor=none;top=0;left=0;bottom=0;right=0;pointerEvents=1;fontSize=16;" vertex="1" parent="bf3HpVVtW3jvYF63dSP6-213">
          <mxGeometry x="25" width="25" height="20" as="geometry">
            <mxRectangle width="25" height="20" as="alternateBounds" />
          </mxGeometry>
        </mxCell>
        <mxCell id="bf3HpVVtW3jvYF63dSP6-216" style="shape=partialRectangle;html=1;whiteSpace=wrap;connectable=0;strokeColor=inherit;overflow=hidden;fillColor=none;top=0;left=0;bottom=0;right=0;pointerEvents=1;fontSize=16;" vertex="1" parent="bf3HpVVtW3jvYF63dSP6-213">
          <mxGeometry x="50" width="25" height="20" as="geometry">
            <mxRectangle width="25" height="20" as="alternateBounds" />
          </mxGeometry>
        </mxCell>
        <mxCell id="bf3HpVVtW3jvYF63dSP6-217" style="shape=partialRectangle;html=1;whiteSpace=wrap;connectable=0;strokeColor=inherit;overflow=hidden;fillColor=none;top=0;left=0;bottom=0;right=0;pointerEvents=1;fontSize=16;" vertex="1" parent="bf3HpVVtW3jvYF63dSP6-213">
          <mxGeometry x="75" width="25" height="20" as="geometry">
            <mxRectangle width="25" height="20" as="alternateBounds" />
          </mxGeometry>
        </mxCell>
        <mxCell id="bf3HpVVtW3jvYF63dSP6-218" value="Paso6" style="text;html=1;align=center;verticalAlign=middle;resizable=0;points=[];autosize=1;strokeColor=none;fillColor=none;" vertex="1" parent="1">
          <mxGeometry x="400" y="460" width="60" height="30" as="geometry" />
        </mxCell>
        <mxCell id="bf3HpVVtW3jvYF63dSP6-219" value="" style="shape=table;startSize=0;container=1;collapsible=0;childLayout=tableLayout;fontSize=16;points=[[0,0,0,0,0],[0,0.25,0,0,0],[0,0.5,0,0,0],[0,0.75,0,0,0],[0,1,0,0,0],[0.25,0,0,0,0],[0.25,1,0,0,0],[0.5,0,0,0,0],[0.5,1,0,0,0],[0.75,0,0,0,0],[0.75,1,0,0,0],[1,0,0,0,0],[1,0.25,0,0,0],[1,0.5,0,0,0],[1,0.75,0,0,0],[1,1,0,0,0]];" vertex="1" parent="1">
          <mxGeometry x="314" y="760" width="100" height="83" as="geometry" />
        </mxCell>
        <mxCell id="bf3HpVVtW3jvYF63dSP6-220" value="" style="shape=tableRow;horizontal=0;startSize=0;swimlaneHead=0;swimlaneBody=0;strokeColor=inherit;top=0;left=0;bottom=0;right=0;collapsible=0;dropTarget=0;fillColor=none;points=[[0,0.5],[1,0.5]];portConstraint=eastwest;fontSize=16;" vertex="1" parent="bf3HpVVtW3jvYF63dSP6-219">
          <mxGeometry width="100" height="22" as="geometry" />
        </mxCell>
        <mxCell id="bf3HpVVtW3jvYF63dSP6-221" value="" style="shape=partialRectangle;html=1;whiteSpace=wrap;connectable=0;strokeColor=inherit;overflow=hidden;fillColor=none;top=0;left=0;bottom=0;right=0;pointerEvents=1;fontSize=16;" vertex="1" parent="bf3HpVVtW3jvYF63dSP6-220">
          <mxGeometry width="25" height="22" as="geometry">
            <mxRectangle width="25" height="22" as="alternateBounds" />
          </mxGeometry>
        </mxCell>
        <mxCell id="bf3HpVVtW3jvYF63dSP6-222" value="1" style="shape=partialRectangle;html=1;whiteSpace=wrap;connectable=0;strokeColor=inherit;overflow=hidden;fillColor=none;top=0;left=0;bottom=0;right=0;pointerEvents=1;fontSize=16;" vertex="1" parent="bf3HpVVtW3jvYF63dSP6-220">
          <mxGeometry x="25" width="25" height="22" as="geometry">
            <mxRectangle width="25" height="22" as="alternateBounds" />
          </mxGeometry>
        </mxCell>
        <mxCell id="bf3HpVVtW3jvYF63dSP6-223" value="" style="shape=partialRectangle;html=1;whiteSpace=wrap;connectable=0;strokeColor=inherit;overflow=hidden;fillColor=none;top=0;left=0;bottom=0;right=0;pointerEvents=1;fontSize=16;" vertex="1" parent="bf3HpVVtW3jvYF63dSP6-220">
          <mxGeometry x="50" width="25" height="22" as="geometry">
            <mxRectangle width="25" height="22" as="alternateBounds" />
          </mxGeometry>
        </mxCell>
        <mxCell id="bf3HpVVtW3jvYF63dSP6-224" value="" style="shape=partialRectangle;html=1;whiteSpace=wrap;connectable=0;strokeColor=inherit;overflow=hidden;fillColor=none;top=0;left=0;bottom=0;right=0;pointerEvents=1;fontSize=16;" vertex="1" parent="bf3HpVVtW3jvYF63dSP6-220">
          <mxGeometry x="75" width="25" height="22" as="geometry">
            <mxRectangle width="25" height="22" as="alternateBounds" />
          </mxGeometry>
        </mxCell>
        <mxCell id="bf3HpVVtW3jvYF63dSP6-225" value="" style="shape=tableRow;horizontal=0;startSize=0;swimlaneHead=0;swimlaneBody=0;strokeColor=inherit;top=0;left=0;bottom=0;right=0;collapsible=0;dropTarget=0;fillColor=none;points=[[0,0.5],[1,0.5]];portConstraint=eastwest;fontSize=16;" vertex="1" parent="bf3HpVVtW3jvYF63dSP6-219">
          <mxGeometry y="22" width="100" height="21" as="geometry" />
        </mxCell>
        <mxCell id="bf3HpVVtW3jvYF63dSP6-226" style="shape=partialRectangle;html=1;whiteSpace=wrap;connectable=0;strokeColor=inherit;overflow=hidden;fillColor=none;top=0;left=0;bottom=0;right=0;pointerEvents=1;fontSize=16;" vertex="1" parent="bf3HpVVtW3jvYF63dSP6-225">
          <mxGeometry width="25" height="21" as="geometry">
            <mxRectangle width="25" height="21" as="alternateBounds" />
          </mxGeometry>
        </mxCell>
        <mxCell id="bf3HpVVtW3jvYF63dSP6-227" value="" style="shape=partialRectangle;html=1;whiteSpace=wrap;connectable=0;strokeColor=inherit;overflow=hidden;fillColor=none;top=0;left=0;bottom=0;right=0;pointerEvents=1;fontSize=16;" vertex="1" parent="bf3HpVVtW3jvYF63dSP6-225">
          <mxGeometry x="25" width="25" height="21" as="geometry">
            <mxRectangle width="25" height="21" as="alternateBounds" />
          </mxGeometry>
        </mxCell>
        <mxCell id="bf3HpVVtW3jvYF63dSP6-228" value="" style="shape=partialRectangle;html=1;whiteSpace=wrap;connectable=0;strokeColor=inherit;overflow=hidden;fillColor=none;top=0;left=0;bottom=0;right=0;pointerEvents=1;fontSize=16;" vertex="1" parent="bf3HpVVtW3jvYF63dSP6-225">
          <mxGeometry x="50" width="25" height="21" as="geometry">
            <mxRectangle width="25" height="21" as="alternateBounds" />
          </mxGeometry>
        </mxCell>
        <mxCell id="bf3HpVVtW3jvYF63dSP6-229" value="1" style="shape=partialRectangle;html=1;whiteSpace=wrap;connectable=0;strokeColor=inherit;overflow=hidden;fillColor=none;top=0;left=0;bottom=0;right=0;pointerEvents=1;fontSize=16;" vertex="1" parent="bf3HpVVtW3jvYF63dSP6-225">
          <mxGeometry x="75" width="25" height="21" as="geometry">
            <mxRectangle width="25" height="21" as="alternateBounds" />
          </mxGeometry>
        </mxCell>
        <mxCell id="bf3HpVVtW3jvYF63dSP6-230" value="" style="shape=tableRow;horizontal=0;startSize=0;swimlaneHead=0;swimlaneBody=0;strokeColor=inherit;top=0;left=0;bottom=0;right=0;collapsible=0;dropTarget=0;fillColor=none;points=[[0,0.5],[1,0.5]];portConstraint=eastwest;fontSize=16;" vertex="1" parent="bf3HpVVtW3jvYF63dSP6-219">
          <mxGeometry y="43" width="100" height="20" as="geometry" />
        </mxCell>
        <mxCell id="bf3HpVVtW3jvYF63dSP6-231" value="1" style="shape=partialRectangle;html=1;whiteSpace=wrap;connectable=0;strokeColor=inherit;overflow=hidden;fillColor=none;top=0;left=0;bottom=0;right=0;pointerEvents=1;fontSize=16;" vertex="1" parent="bf3HpVVtW3jvYF63dSP6-230">
          <mxGeometry width="25" height="20" as="geometry">
            <mxRectangle width="25" height="20" as="alternateBounds" />
          </mxGeometry>
        </mxCell>
        <mxCell id="bf3HpVVtW3jvYF63dSP6-232" value="" style="shape=partialRectangle;html=1;whiteSpace=wrap;connectable=0;strokeColor=inherit;overflow=hidden;fillColor=none;top=0;left=0;bottom=0;right=0;pointerEvents=1;fontSize=16;" vertex="1" parent="bf3HpVVtW3jvYF63dSP6-230">
          <mxGeometry x="25" width="25" height="20" as="geometry">
            <mxRectangle width="25" height="20" as="alternateBounds" />
          </mxGeometry>
        </mxCell>
        <mxCell id="bf3HpVVtW3jvYF63dSP6-233" value="" style="shape=partialRectangle;html=1;whiteSpace=wrap;connectable=0;strokeColor=inherit;overflow=hidden;fillColor=none;top=0;left=0;bottom=0;right=0;pointerEvents=1;fontSize=16;" vertex="1" parent="bf3HpVVtW3jvYF63dSP6-230">
          <mxGeometry x="50" width="25" height="20" as="geometry">
            <mxRectangle width="25" height="20" as="alternateBounds" />
          </mxGeometry>
        </mxCell>
        <mxCell id="bf3HpVVtW3jvYF63dSP6-234" value="" style="shape=partialRectangle;html=1;whiteSpace=wrap;connectable=0;strokeColor=inherit;overflow=hidden;fillColor=none;top=0;left=0;bottom=0;right=0;pointerEvents=1;fontSize=16;" vertex="1" parent="bf3HpVVtW3jvYF63dSP6-230">
          <mxGeometry x="75" width="25" height="20" as="geometry">
            <mxRectangle width="25" height="20" as="alternateBounds" />
          </mxGeometry>
        </mxCell>
        <mxCell id="bf3HpVVtW3jvYF63dSP6-235" style="shape=tableRow;horizontal=0;startSize=0;swimlaneHead=0;swimlaneBody=0;strokeColor=inherit;top=0;left=0;bottom=0;right=0;collapsible=0;dropTarget=0;fillColor=none;points=[[0,0.5],[1,0.5]];portConstraint=eastwest;fontSize=16;" vertex="1" parent="bf3HpVVtW3jvYF63dSP6-219">
          <mxGeometry y="63" width="100" height="20" as="geometry" />
        </mxCell>
        <mxCell id="bf3HpVVtW3jvYF63dSP6-236" style="shape=partialRectangle;html=1;whiteSpace=wrap;connectable=0;strokeColor=inherit;overflow=hidden;fillColor=none;top=0;left=0;bottom=0;right=0;pointerEvents=1;fontSize=16;" vertex="1" parent="bf3HpVVtW3jvYF63dSP6-235">
          <mxGeometry width="25" height="20" as="geometry">
            <mxRectangle width="25" height="20" as="alternateBounds" />
          </mxGeometry>
        </mxCell>
        <mxCell id="bf3HpVVtW3jvYF63dSP6-237" style="shape=partialRectangle;html=1;whiteSpace=wrap;connectable=0;strokeColor=inherit;overflow=hidden;fillColor=none;top=0;left=0;bottom=0;right=0;pointerEvents=1;fontSize=16;" vertex="1" parent="bf3HpVVtW3jvYF63dSP6-235">
          <mxGeometry x="25" width="25" height="20" as="geometry">
            <mxRectangle width="25" height="20" as="alternateBounds" />
          </mxGeometry>
        </mxCell>
        <mxCell id="bf3HpVVtW3jvYF63dSP6-238" value="1" style="shape=partialRectangle;html=1;whiteSpace=wrap;connectable=0;strokeColor=inherit;overflow=hidden;fillColor=none;top=0;left=0;bottom=0;right=0;pointerEvents=1;fontSize=16;" vertex="1" parent="bf3HpVVtW3jvYF63dSP6-235">
          <mxGeometry x="50" width="25" height="20" as="geometry">
            <mxRectangle width="25" height="20" as="alternateBounds" />
          </mxGeometry>
        </mxCell>
        <mxCell id="bf3HpVVtW3jvYF63dSP6-239" style="shape=partialRectangle;html=1;whiteSpace=wrap;connectable=0;strokeColor=inherit;overflow=hidden;fillColor=none;top=0;left=0;bottom=0;right=0;pointerEvents=1;fontSize=16;" vertex="1" parent="bf3HpVVtW3jvYF63dSP6-235">
          <mxGeometry x="75" width="25" height="20" as="geometry">
            <mxRectangle width="25" height="20" as="alternateBounds" />
          </mxGeometry>
        </mxCell>
        <mxCell id="bf3HpVVtW3jvYF63dSP6-240" value="Paso7" style="text;html=1;align=center;verticalAlign=middle;resizable=0;points=[];autosize=1;strokeColor=none;fillColor=none;" vertex="1" parent="1">
          <mxGeometry x="360" y="610" width="60" height="30" as="geometry" />
        </mxCell>
        <mxCell id="bf3HpVVtW3jvYF63dSP6-241" value="Paso8 - FIN" style="text;html=1;align=center;verticalAlign=middle;resizable=0;points=[];autosize=1;strokeColor=none;fillColor=none;" vertex="1" parent="1">
          <mxGeometry x="275" y="730" width="90" height="30" as="geometry" />
        </mxCell>
        <mxCell id="bf3HpVVtW3jvYF63dSP6-242" value="" style="endArrow=classic;html=1;rounded=0;exitX=0.32;exitY=1.126;exitDx=0;exitDy=0;exitPerimeter=0;" edge="1" parent="1" source="bf3HpVVtW3jvYF63dSP6-165" target="bf3HpVVtW3jvYF63dSP6-177">
          <mxGeometry width="50" height="50" relative="1" as="geometry">
            <mxPoint x="390" y="610" as="sourcePoint" />
            <mxPoint x="440" y="560" as="targetPoint" />
          </mxGeometry>
        </mxCell>
        <mxCell id="bf3HpVVtW3jvYF63dSP6-243" value="" style="endArrow=classic;html=1;rounded=0;" edge="1" parent="1" source="bf3HpVVtW3jvYF63dSP6-192" target="bf3HpVVtW3jvYF63dSP6-198">
          <mxGeometry width="50" height="50" relative="1" as="geometry">
            <mxPoint x="390" y="610" as="sourcePoint" />
            <mxPoint x="440" y="560" as="targetPoint" />
          </mxGeometry>
        </mxCell>
        <mxCell id="bf3HpVVtW3jvYF63dSP6-244" value="" style="endArrow=classic;html=1;rounded=0;" edge="1" parent="1" source="bf3HpVVtW3jvYF63dSP6-213" target="bf3HpVVtW3jvYF63dSP6-220">
          <mxGeometry width="50" height="50" relative="1" as="geometry">
            <mxPoint x="390" y="610" as="sourcePoint" />
            <mxPoint x="440" y="560" as="targetPoint" />
          </mxGeometry>
        </mxCell>
        <mxCell id="bf3HpVVtW3jvYF63dSP6-245" value="Se va agregando en cada fila una reina SIEMPRE Y CUANDO no choque&lt;br&gt;con otras reinas ubicada previamente." style="text;html=1;align=center;verticalAlign=middle;resizable=0;points=[];autosize=1;strokeColor=none;fillColor=none;" vertex="1" parent="1">
          <mxGeometry x="610" y="605" width="420" height="40" as="geometry" />
        </mxCell>
      </root>
    </mxGraphModel>
  </diagram>
</mxfile>
